<?xml version="1.0" encoding="utf-8"?>
<!-- Generator: Adobe Illustrator 27.5.0, SVG Export Plug-In . SVG Version: 6.00 Build 0)  -->
<svg version="1.1" id="Design" xmlns="http://www.w3.org/2000/svg" xmlns:xlink="http://www.w3.org/1999/xlink" x="0px" y="0px"
	 viewBox="0 0 2000 2000" style="enable-background:new 0 0 2000 2000;" xml:space="preserve">
<rect style="fill:#FFFFFF;" width="2000" height="2000"/>
<g>
	<path style="fill:#4D4964;" d="M1440.983,2000c-49.613,0-99.226,0-148.839,0c-1.839-1.28-3.977-2.086-5.541-3.807
		c-8.96-9.856-19.681-17.863-28.87-27.489c-20.582-21.562-43.483-40.537-66.457-59.43c-32.967-27.111-60.439-58.291-77.121-98.433
		c-9.589-23.075-25.473-41.868-46.785-55.601c-7.587-4.889-14.789-10.318-21.751-16.055c-24.116-19.875-52.711-30.095-82.474-37.147
		c-11.868-2.812-23.991-1.878-31.668,10.561c-2.434,3.944-6.485,4.42-10.819,3.133c-5.617-1.668-11.077-3.795-16.639-5.625
		c-24.406-8.034-48.981-15.534-73.412-23.478c-15.722-5.112-29.472-14.537-44.298-21.594
		c-21.518-10.242-42.884-21.124-66.376-26.464c-6.446-1.465-12.98-1.477-19.295,1.044c-10.283,4.103-15.688,14.213-13.51,25.121
		c2.08,10.414,7.492,18.66,15.787,25.213c12.466,9.848,25.761,18.179,40.873,23.402c23.487,8.118,45.57,19.453,68.105,29.758
		c12.718,5.816,26.046,10.119,39.018,15.307c2.418,0.967,5.725,1.476,5.872,4.793c0.131,2.955-2.947,3.665-4.968,4.944
		c-6.44,4.073-9.369,10.059-9.884,17.487c-1.311,18.905,5.992,33.705,21.032,45.01c2.975,2.236,8.385,3.88,7.891,7.508
		c-0.54,3.961-6.332,3.075-9.751,4.417c-10.917,4.284-16.044,12.968-14.142,24.593c1.952,11.927,7.482,22.097,15.194,31.211
		c0.582,0.687,1.28,1.276,1.852,1.97c2.712,3.29,6.723,6.201,7.265,10.36c0.645,4.958-5.222,5.447-8.033,8.084
		c-8.028,7.534-9.42,16.687-6.596,26.679c3.653,12.926,12.014,23.09,20.651,32.928c4.601,5.241,9.895,9.865,14.721,14.916
		c1.768,1.85,4.456,3.366,3.675,6.686c-109.149,0-218.298,0-327.447,0c-1.985-2.257-1.88-4.948-1.613-7.681
		c1.601-16.368,2.915-32.761,2.306-49.22c-1.082-29.21-8.374-57.282-15.776-85.328c0.056,6.085,1.244,11.993,2.417,17.901
		c3.86,19.448,8.133,38.822,9.865,58.633c1.24,14.178,1.024,28.367,0.219,42.533c-0.28,4.935-0.864,9.859-0.872,14.821
		c-0.005,2.915,0.191,5.914-1.958,8.341c-89.755,0-179.509,0-269.264,0c-2.217-2.502-1.734-5.454-1.354-8.364
		c7.528-57.671,15.789-115.244,28.047-172.119c10.305-47.811,20.59-95.696,36.445-142.075c7.869-23.019,16.425-45.852,28.143-67.299
		c16.803-30.754,41.042-54.705,69.601-74.354c50.927-35.038,106.208-62.059,162.82-86.38c21.115-9.071,43.246-15.609,65.228-22.384
		c23.13-7.128,44.844-17.693,66.826-27.604c2.054-0.926,4.033-2.015,6.053-3.018c10.509-5.22,10.917-4.875,13.678,6.453
		c6.106,25.044,18.855,46.714,34.949,66.487c29.477,36.216,68.171,57.285,112.887,68.763c29.352,7.535,58.872,14.255,89.274,13.402
		c34.829-0.977,68.978-7.164,102.251-17.748c26.298-8.365,51.803-18.353,74.764-34.148c22.601-15.548,40.254-35.365,52.721-59.682
		c6.157-12.009,13.549-23.446,17.662-36.465c1.411-4.468,4.302-5.814,8.926-4.169c50.542,17.981,101.432,34.958,152.002,52.868
		c24.878,8.811,49.466,18.185,73.64,28.818c45.248,19.901,78.604,52.289,103.882,94.269c22.759,37.798,39.106,77.897,50.391,120.551
		c14.195,53.655,24.652,108.117,37.429,162.063c10.605,44.773,16.887,90.418,28.091,135.049c0.591,2.356,1.552,4.824-0.38,7.087
		c-87.049,0-174.097,0-261.146,0c-1.431-1.609-1.812-3.567-1.913-5.634c-1.791-36.884-2.365-73.764-0.357-110.67
		c0.551-10.121,1.448-20.193,2.322-30.28c2.307-26.648,12.857-50.901,21.64-75.675c-8.514,23.6-19.989,46.237-22.975,71.634
		c-1.708,14.529-2.954,29.065-3.7,43.698c-0.917,18.004-1.058,35.987-1.169,53.99c-0.096,15.541,1.614,31,1.938,46.521
		C1442.229,1995.856,1442.62,1998.088,1440.983,2000z"/>
	<path style="fill:#E1B399;" d="M1281.318,2000c-126.288,0-252.576,0-378.864,0c-13.817-7.961-23.592-20.036-32.786-32.604
		c-5.594-7.648-10.694-15.615-12.425-25.273c-1.966-10.97,2.514-20.207,12.521-25.05c8.567-4.146,8.93-5.455,1.976-12.168
		c-7.88-7.606-14.522-15.967-18.996-26.048c-2.239-5.046-3.571-10.123-3.494-15.674c0.162-11.571,5.849-17.935,17.463-19.002
		c4.044-0.372,8.109-0.233,12.165,0.079c1.521,0.117,3.54,0.745,4.239-1.028c0.795-2.016-1.017-3.288-2.458-4.347
		c-4.543-3.342-9.331-6.327-14.008-9.473c-11.837-7.961-18.848-19.094-21.972-32.889c-1.293-5.708-0.768-11.238,1.241-16.619
		c2.301-6.164,6.693-10.337,13.287-11.17c7.842-0.991,15.651-1.071,23.275,2.142c8.12,3.422,15.916,7.476,23.862,11.235
		c1.548,0.733,3.784,2.273,4.827,0.385c1.319-2.388-1.426-3.323-3.063-4.274c-11.566-6.713-24.202-11.029-36.56-15.9
		c-34.819-13.724-69.618-27.445-103.303-43.859c-12.143-5.917-25.445-9.145-37.512-15.41c-9.059-4.703-17.427-10.378-25.475-16.572
		c-6.063-4.667-10.167-10.904-12.901-17.915c-6.097-15.637,5.045-28.588,22.698-26.722c11.638,1.23,22.13,5.9,32.768,10.308
		c20.224,8.38,39.94,17.698,59.018,28.513c10.349,5.867,21.553,10.354,33.103,13.601c26.279,7.386,51.859,16.952,77.946,24.895
		c12.033,3.664,24.382,6.481,36.633,9.47c20.696,5.048,40.352,12.886,59.921,21.034c4.076,2.178,8.393,3.832,12.593,5.615
		c0.285,0.126,0.453,0.199,0.453,0.199c0.338-0.024,0.483-0.12,0.436-0.286c-0.248-0.867,0.429,0.046-0.527,0.025
		c-3.769-1.229-7.118-3.263-10.721-4.735c-21.673-11.895-44.521-20.658-68.698-25.905c-2.424-0.526-4.791-1.264-7.153-2.022
		c-7.777-2.496-8.47-4.936-2.863-11.092c5.338-5.86,12.546-7.855,19.765-6.226c30.512,6.885,59.964,16.491,84.798,36.646
		c9.454,7.673,19.557,14.469,29.426,21.579c21.252,15.31,33.902,36.997,44.462,60.158c10.212,22.4,24.392,41.842,41.438,59.578
		c17.864,18.587,38.037,34.457,57.437,51.242c21.986,19.022,43.005,39.046,63.291,59.853
		C1280.078,1995.827,1282.144,1997.271,1281.318,2000z"/>
	<path style="fill:#010001;" d="M1707.541,2000c-3.224-14.707-6.639-29.376-9.627-44.13c-4.594-22.686-8.678-45.477-13.39-68.138
		c-3.752-18.047-8.271-35.933-12.176-53.949c-4.999-23.063-9.323-46.279-14.679-69.256c-5.359-22.992-11.744-45.743-17.468-68.652
		c-5.135-20.552-10.819-40.921-19.218-60.414c-15.314-35.545-34.17-68.951-59.135-98.767c-14.98-17.891-32.921-31.792-53.328-42.94
		c-27.18-14.849-55.664-26.492-84.9-36.54c-35.127-12.073-70.067-24.693-105.196-36.759c-19.154-6.579-38.716-11.963-57.451-19.772
		c-3.844-1.602-3.774-1.417-5.552,2.898c-8.774,21.291-19.09,41.765-32.577,60.518c-13.247,18.42-30.365,32.518-49.703,44.06
		c-26.366,15.736-55.168,25.295-84.641,33.109c-19.602,5.197-39.563,8.519-59.69,10.719c-26.148,2.858-52.155,1.183-77.87-4.066
		c-24.044-4.909-47.808-10.939-70.69-20.041c-19.448-7.736-36.723-18.888-52.806-32.216c-20.836-17.265-36.64-38.405-49.022-62.197
		c-5.298-10.181-9.397-20.944-11.48-32.351c-0.401-2.194-1.074-4.338-1.626-6.526c-2.833-0.36-4.77,1.448-6.932,2.455
		c-24.09,11.215-47.968,22.956-73.366,31.036c-17.809,5.666-35.528,11.574-53.193,17.671c-20.927,7.222-40.898,16.548-60.671,26.393
		c-29.855,14.865-59.843,29.502-88.242,47.055c-22.818,14.103-44.901,29.167-63.916,48.457
		c-19.289,19.569-33.444,42.182-44.191,67.326c-19.108,44.705-31.495,91.384-42.328,138.606
		c-5.782,25.203-11.674,50.37-16.379,75.799c-3.842,20.771-7.455,41.578-10.501,62.486c-2.818,19.343-6.22,38.606-8.75,57.984
		c-1.307,10.008-3.355,19.973-3.281,30.143c-2.255,0-4.51,0-6.765,0c2.471-30.328,6.31-60.492,11.122-90.527
		c5.807-36.245,11.617-72.499,19.963-108.273c9.461-40.554,18.049-81.34,31.188-120.944c5.958-17.958,13.022-35.494,20.346-52.936
		c15.049-35.839,38.914-64.66,69.705-87.98c26.307-19.925,54.63-36.616,83.972-51.596c30.881-15.765,61.554-32.018,93.992-44.461
		c21.864-8.387,44.363-14.944,66.618-22.204c29.404-9.592,57.297-22.808,84.734-36.917c14.097-7.249,26.425-17.163,37.643-28.416
		c5.094-5.109,8.426-11.052,9.766-18.145c4.179-22.117,8.559-44.195,11.818-66.48c0.947-6.475,0.139-12.029-3.253-17.928
		c-11.457-19.927-21.846-40.42-27.984-62.748c-5.566-20.246-9.423-40.799-10.754-61.788c-0.14-2.207,0.233-4.511-1.03-6.538
		c-26.933,1.857-42.096-18.045-44.665-38.364c-1.61-12.729-2.415-25.563-5.159-38.152c-2.112-9.693-5.083-19.142-7.644-28.707
		c-4.079-15.23-5.458-30.571-2.091-46.128c0.332-1.535,0.742-3.061,1.228-4.555c4.604-14.14,12.224-18.995,26.856-17.1
		c1.113-1.564-0.003-2.926-0.418-4.356c-7.55-25.999-18.587-50.687-28.489-75.801c-5.779-14.658-11.639-29.278-14.567-44.878
		c-1.841-9.811-2.81-19.692-1.744-29.587c1.337-12.408,6.547-23.305,14.465-32.942c5.317-6.471,11.269-12.323,17.597-17.757
		c18.071-15.518,32.064-34.069,42.047-55.671c13.074-28.292,32.504-51.786,55.094-72.878c18.825-17.576,41.291-25.844,66.909-26.379
		c17.552-0.367,35.19-0.314,52.227-5.643c5.799-1.814,11.599-3.63,17.435-5.322c14.188-4.116,28.431-3.997,42.737-0.527
		c14.315,3.472,27.87,8.952,40.82,15.83c13.238,7.031,27.027,12.145,41.807,14.856c19.434,3.565,34.706,14.432,47.924,28.558
		c3.102,3.315,5.372,7.219,7.16,11.393c1.152,2.689,2.406,5.341,3.411,8.084c2.428,6.629,7.363,9.978,14.089,11.11
		c4.44,0.748,8.893,1.432,13.316,2.272c15.15,2.875,28.514,9.606,40.574,19.055c13.353,10.463,21.507,24.167,24.466,40.788
		c2.922,16.415,6.26,32.7,10.695,48.795c3.99,14.479,3.592,29.452,3.456,44.345c-0.221,24.19-3.021,48.104-7.604,71.821
		c-2.937,15.2-9.232,29.127-16.642,42.607c-1.062,1.932-2.62,3.664-2.905,6.275c1.143,0.087,2.214,0.214,3.287,0.242
		c6.424,0.167,10.56,3.5,12.632,9.398c2.275,6.474,2.706,13.176,2.169,20c-1.01,12.849-3.488,25.427-6.873,37.831
		c-4.531,16.603-6.494,33.56-7.663,50.68c-0.72,10.544-1.1,21.173-3.806,31.487c-2.429,9.259-7.251,17.074-15.295,22.361
		c-7.769,5.106-16.078,6.83-24.9,1.532c-0.666,0.231-1.084,1.028-1.247,1.897c-5.278,28.059-15.716,54.434-26.271,80.778
		c-4.941,12.332-9.953,24.632-15.883,36.525c-2.295,4.603-2.806,9.171-2.377,14.327c1.083,13.022,1.471,26.102,2.154,39.158
		c0.518,9.9,0.887,19.803,2.303,29.645c1.11,7.714,4.516,14.063,10.156,19.322c4.303,4.013,9.16,7.299,13.946,10.68
		c37.112,26.22,77.52,45.736,120.966,58.877c36.655,11.086,72.111,25.604,108.517,37.392c29.359,9.506,58.047,20.639,86.15,33.534
		c40.233,18.461,71.141,46.751,94.92,83.744c26.798,41.69,46.648,86.217,58.046,134.517c6.1,25.852,14.573,51.134,19.517,77.256
		c8.337,44.045,19.848,87.391,28.484,131.359c5.773,29.388,11.153,58.853,16.66,88.293c0.367,1.961,0.894,3.971,0.33,6.008
		C1711.149,2000,1709.345,2000,1707.541,2000z"/>
	<path style="fill:#010001;" d="M1014.509,1751.195c-5.676-1.519-10.978-4.028-16.355-6.309
		c-24.165-10.248-49.613-16.121-74.964-22.41c-9.154-2.271-18.056-5.587-27.022-8.578c-19.226-6.413-38.437-12.846-57.917-18.482
		c-15.426-4.464-29.933-11.276-43.761-19.411c-20.101-11.826-41.971-19.71-63.363-28.635c-7.706-3.215-15.955-4.826-24.477-3.442
		c-9.441,1.533-14.256,7.225-14.039,16.715c0.193,8.419,4.12,15.127,9.952,20.786c8.809,8.548,19.02,15.13,29.946,20.64
		c1.006,0.507,2.011,1.03,3.059,1.435c48.309,18.677,94.498,42.431,143.325,59.858c9.781,3.491,19.2,7.749,28.49,12.326
		c2.204,1.086,4.307,2.475,6.223,4.014c1.552,1.247,1.78,3.15,0.763,4.904c-1.1,1.897-2.949,1.965-4.745,1.262
		c-1.455-0.57-2.792-1.451-4.162-2.227c-8.253-4.674-16.908-8.477-25.737-11.903c-6.749-2.619-13.759-2.311-20.689-1.34
		c-5.552,0.778-9.319,4.26-11.354,9.515c-1.919,4.954-2.364,10.033-1.431,15.275c2.36,13.273,8.774,24.021,19.847,31.817
		c4.789,3.372,9.766,6.475,14.602,9.78c1.664,1.137,3.275,2.405,4.703,3.821c1.196,1.187,1.454,2.827,0.667,4.381
		c-0.81,1.598-2.325,2.088-4.005,1.863c-2.893-0.387-5.758-1.051-8.661-1.287c-3.824-0.312-7.641-0.179-11.349,1.125
		c-7.551,2.656-11.311,7.753-11.41,15.704c-0.075,5.989,1.636,11.542,4.119,16.923c4.413,9.566,10.99,17.514,18.358,24.899
		c1.906,1.91,3.889,3.813,5.42,6.009c1.789,2.565,1.116,4.604-1.746,6.001c-2.013,0.983-4.245,1.508-6.289,2.436
		c-8.753,3.976-12.931,11.786-11.832,21.348c0.793,6.899,3.513,12.962,7.112,18.773c8.878,14.339,20.486,26.255,32.942,37.439
		c1.311,1.178,3.065,1.948,3.725,3.778c-2.255,0-4.51,0-6.765,0c-3.259-4.941-7.925-8.553-12.141-12.548
		c-9.069-8.593-16.611-18.357-23.141-28.939c-4.079-6.611-6.67-13.7-6.801-21.624c-0.164-9.968,4.205-17.245,12.586-22.321
		c1.344-0.814,2.736-1.549,4.091-2.347c0.174-0.103,0.256-0.361,0.704-1.029c-3.084-3.54-6.315-7.174-9.464-10.879
		c-8.144-9.582-14.292-20.102-16.269-32.813c-2.059-13.239,3.703-23.023,16.482-26.992c2.715-0.843,5.544-1.321,8.946-2.114
		c-3.613-2.651-6.9-4.931-10.045-7.391c-15.639-12.234-22.646-28.306-20.317-48c0.872-7.372,4.482-13.663,11.716-17.101
		c1.372-0.652,3.007-0.96,3.919-2.445c-0.312-2.016-2.164-2.174-3.511-2.643c-27.689-9.643-54.204-21.996-80.719-34.409
		c-11.598-5.43-23.769-9.64-35.697-14.36c-13.566-5.368-25.451-13.463-36.497-22.804c-7.429-6.282-12.167-14.237-14.047-23.989
		c-2.731-14.167,5.744-27.812,22.275-29.114c10.8-0.851,21.013,1.846,30.858,5.97c14.741,6.173,29.506,12.307,44.056,18.908
		c6.948,3.152,13.395,7.399,20.124,11.049c14.699,7.972,30.031,14.34,46.23,18.668c17.187,4.592,33.873,10.797,50.777,16.299
		c7.056,2.297,14.038,4.825,21.109,7.072c5.69,1.808,6.948,1.616,10.114-3.493c5.08-8.198,12.453-11.032,21.655-11.222
		c7.33-0.151,14.42,0.953,21.254,3.221c15.589,5.175,31.215,10.286,45.971,17.675c8.094,4.053,15.749,8.723,22.72,14.505
		c10.061,8.344,20.812,15.766,31.49,23.266c19.998,14.047,33.444,33.267,43.13,55.198c10.95,24.794,25.33,47.095,44.424,66.408
		c14.119,14.28,29.343,27.252,44.855,39.963c11.661,9.555,23.074,19.457,34.07,29.767c16.433,15.408,32.406,31.308,48.563,47.01
		c1.118,1.087,2.469,1.999,2.981,3.596c-3.608,0-7.216,0-10.825,0c-1.735-3.263-4.857-5.228-7.353-7.766
		c-27.843-28.316-56.96-55.225-87.867-80.205c-13.513-10.922-25.714-23.301-37.474-36.107
		c-14.163-15.424-25.094-32.921-34.023-51.777c-3.469-7.326-7.104-14.581-10.924-21.729c-8.327-15.581-19.904-28.38-34.202-38.673
		c-11.707-8.428-23.562-16.648-34.76-25.761c-0.872-0.709-1.821-1.328-2.762-1.946c-21.767-14.302-46.041-22.41-71.056-28.637
		c-2.369-0.59-4.928-0.755-7.375-0.63c-9.79,0.498-14.42,2.677-18.482,12.719c28.766,6.685,57.05,14.6,82.48,30.125
		C1017.557,1752.117,1016.109,1751.8,1014.509,1751.195z"/>
	<path style="fill:#010101;" d="M1440.983,2000c-3.083-30.521-3.074-61.136-2.399-91.743c0.332-15.049,1.261-30.115,2.654-45.105
		c2.071-22.295,7.455-43.823,16.519-64.394c3.264-7.406,5.975-15.056,8.975-22.58c0.726-1.821,1.028-3.936,3.43-5.248
		c1.264,2.532,0.179,4.716-0.562,6.894c-4.709,13.844-9.506,27.658-14.125,41.532c-4.572,13.733-6.314,27.994-7.815,42.324
		c-3.764,35.936-2.618,71.968-2.356,107.98c0.073,10.114,1.567,20.194,1.092,30.339C1444.591,2000,1442.787,2000,1440.983,2000z"/>
	<path style="fill:#010102;" d="M562.829,2000c-0.675-9.914,0.64-19.751,1.185-29.615c1.601-28.977-2.472-57.359-8.599-85.563
		c-1.999-9.201-4.196-18.396-4.842-27.833c-0.126-1.834-1.089-4.727,1.463-5.186c2.668-0.48,2.626,2.59,3.089,4.377
		c5.232,20.211,10.12,40.479,13.392,61.143c2.55,16.106,2.85,32.242,2.265,48.417c-0.414,11.435-1.663,22.84-2.54,34.259
		C566.438,2000,564.634,2000,562.829,2000z"/>
	<path style="fill:#271E1A;" d="M1014.509,1751.195c1.137-0.275,2.423-0.265,3.011-1.584c4.333,1.207,8.197,3.421,12.067,5.621
		c0.182,1.289-0.115,2.05-1.625,1.473C1023.293,1755.319,1018.668,1753.826,1014.509,1751.195z"/>
	<path style="fill:#4D3932;" d="M1027.962,1756.704c0.542-0.491,1.083-0.982,1.625-1.473c1.156,0.401,3.062,1.022,2.252,2.202
		C1030.924,1758.766,1029.16,1757.688,1027.962,1756.704z"/>
	<path style="fill:#E1B399;" d="M1196.234,1048.433c0.615,42.001-8.298,84.655-24.226,126.142
		c-15.045,39.189-32.048,77.396-53.068,113.77c-4.966,8.594-10.236,16.973-16.004,25.055c-11.44,16.027-25.546,29.052-42.758,38.705
		c-11.786,6.61-23.016,14.348-35.571,19.413c-31.603,12.748-63.467,14.185-95.248,0.49c-11.31-4.873-20.932-12.33-29.749-20.845
		c-8.131-7.851-15.496-16.4-22.188-25.477c-24.401-33.096-45.369-68.271-63.348-105.246c-11.772-24.211-17.449-50.116-21.149-76.511
		c-2.88-20.547-3.255-41.306-4.269-62.009c-1.069-21.825-2.683-43.617-4.61-65.392c-1.946-21.989-3.948-43.977-4.913-66.052
		c-0.7-16.005-1.199-31.986,0.167-47.957c3.303-38.62,15.32-73.847,43.552-101.466c21.358-20.895,47.461-33.864,76.774-40.346
		c28.206-6.237,56.905-9.17,85.447-13.086c13.365-1.834,26.948-2.154,40.445-2.927c8.818-0.505,17.539,0.766,26.211,2.287
		c13.531,2.373,27.262,3.525,40.667,6.662c20.251,4.74,37.389,14.739,52.468,29.14c21.635,20.662,31.752,46.508,36.331,75.217
		c3.022,18.945,3.659,38.113,5.375,57.179c1.979,21.987,3.664,44.003,5.823,65.972
		C1194.509,1002.694,1196.167,1024.247,1196.234,1048.433z"/>
	<path style="fill:#33180D;" d="M779.414,1014.562c-3.585-3.097-2.548-6.377-3.423-9.09c-2.688-8.335-5.187-16.735-7.602-25.154
		c-4.955-17.274-9.697-34.614-15.401-51.659c-6.853-20.48-15.477-40.284-23.425-60.344c-6.542-16.513-13.215-32.978-15.758-50.693
		c-2.643-18.408-0.803-35.873,11.503-51.011c4.98-6.127,10.592-11.488,16.451-16.797c15.536-14.079,29.868-29.171,39.635-48.243
		c5.528-10.794,10.673-21.836,17.093-32.195c6.538-10.55,14.394-20.039,22.366-29.485c5.38-6.375,10.964-12.542,17.042-18.235
		c13.173-12.336,28.022-21.8,45.979-25.432c5.689-1.151,11.504-1.653,17.332-2.147c18.061-1.531,36.443,0.038,54.132-5.264
		c6.671-2,13.405-3.819,19.992-6.068c14.171-4.839,28.246-4.01,42.373,0.09c10.823,3.141,21.41,6.868,31.322,12.302
		c16.475,9.032,33.744,15.834,52.313,19.203c10.942,1.985,19.964,7.978,28.57,14.595c6.242,4.799,12.316,9.794,16.598,16.612
		c2.785,4.434,4.425,9.38,6.34,14.15c3.265,8.132,9.666,11.416,17.526,12.973c5.052,1.001,10.198,1.595,15.188,2.832
		c15.341,3.805,29.172,10.931,40.641,21.666c8.621,8.069,14.966,18.294,16.94,30.145c3.43,20.593,8.938,40.728,12.748,61.206
		c2.536,13.631,3.949,27.558,1.323,41.498c-0.412,2.186-0.215,4.494-0.23,6.746c-0.103,15.078-2.555,29.895-4.881,44.732
		c-1.217,7.765-2.452,15.523-4.94,22.994c-4.937,14.828-12.163,28.566-20.636,41.628c-6.858,10.573-13.42,21.331-19.426,32.381
		c-3.585,6.596-7.119,13.554-5.933,21.733c-1.53-3.21-2.415-6.345-2.377-9.765c0.103-9.222-1.681-18.294-2.359-27.438
		c-0.498-6.713-1.362-13.396-1.887-20.103c-0.593-7.569-0.799-15.198-2.197-22.727c-1.062-5.717-0.896-11.632-1.323-17.425
		c-0.873-11.855-1.822-23.71-3.158-35.506c-2.676-23.621-7.809-46.67-21.333-66.744c-13.684-20.311-31.016-36.707-53.953-46.455
		c-9.785-4.158-20.007-6.641-30.468-8.252c-14.38-2.215-28.733-4.657-43.166-6.454c-6.445-0.802-13.057-0.322-19.593-0.329
		c-7.411-0.008-14.841-0.393-22.172,1.27c-6.093,1.382-12.363,0.591-18.544,1.06c-14.176,1.077-27.954,3.636-41.724,6.936
		c-14.816,3.55-29.833,6.255-44.694,9.624c-17.058,3.867-32.518,11.528-47.484,20.401c-9.14,5.419-17.698,11.662-25.24,18.987
		c-6.729,6.535-12.79,13.867-17.909,21.846c-10.66,16.617-18.315,34.556-22.818,53.741c-2.972,12.664-4.954,25.526-4.891,38.618
		c0.065,13.53-0.583,27.098,0.255,40.577c0.61,9.815,0.728,19.689,2.122,29.497c0.909,6.399,1.001,12.958,1.523,19.442
		C778.114,1005.224,778.882,1009.389,779.414,1014.562z"/>
	<path style="fill:#E1B399;" d="M834.49,1271.006c13.807,23.266,27.808,46.402,45.021,67.394
		c7.735,9.434,15.962,18.375,25.508,26.043c22.13,17.775,47.425,24.667,75.626,23.554c24.357-0.961,46.385-8.163,66.877-20.951
		c5.922-3.696,12.06-7.049,18.12-10.523c16.292-9.34,29.761-21.784,40.823-36.916c13.887-18.998,24.531-39.89,35.524-60.58
		c1.038-1.954,2.024-3.935,4.16-5.902c0.33,4.727,0.771,9.45,0.969,14.183c0.584,13.964,0.997,27.936,1.64,41.898
		c0.207,4.491,0.703,8.997,1.458,13.429c1.325,7.781,4.921,14.483,10.692,19.891c2.79,2.615,5.689,5.176,8.825,7.347
		c24.104,16.684,48.479,32.917,75.704,44.281c5.377,2.244,5.573,2.461,3.291,7.729c-8.52,19.661-17.812,38.969-30.321,56.447
		c-16.52,23.081-38.67,39.523-63.866,51.988c-31.333,15.502-64.604,25.009-98.931,31.021c-19.118,3.348-38.362,5.39-57.818,5.082
		c-22.666-0.359-44.806-4.349-66.735-9.663c-19.275-4.671-38.417-9.915-56.428-18.398c-47.958-22.589-81.329-58.736-99.827-108.455
		c-1.796-4.826-2.557-10.028-4.109-14.957c-0.847-2.69-0.15-4.074,2.224-5.429c6.854-3.913,13.432-8.271,19.66-13.138
		c6.94-5.424,13.482-11.273,19.434-17.785c4.518-4.943,7.728-10.606,9.036-17.135c4.424-22.08,8.737-44.184,11.207-66.595
		C833.884,1274.091,831.131,1270.778,834.49,1271.006z"/>
	<path style="fill:#E1B399;" d="M784.356,1104.744c0.077,1.35-0.003,2.73,0.256,4.044c1.225,6.215-1.292,8.456-8.399,7.119
		c-11.123-2.093-20.009-7.874-25.319-18.352c-2.792-5.51-4.576-11.379-4.964-17.44c-1.492-23.301-6.759-45.796-13.295-68.119
		c-3.77-12.874-4.791-26.119-2.051-39.451c0.913-4.445,2.186-8.76,4.755-12.545c2.785-4.104,6.466-6.861,11.671-7.037
		c6.415-0.217,9.036,1.465,10.615,7.656c5.344,20.954,12.256,41.446,19.246,61.858c3.14,9.169,4.23,18.267,4.808,27.601
		c1.128,18.208,1.879,36.439,2.786,54.66C784.427,1104.741,784.392,1104.742,784.356,1104.744z"/>
	<path style="fill:#E1B399;" d="M1250.425,968.673c-0.135,11.625-1.903,22.094-4.951,32.232
		c-6.922,23.028-9.791,46.654-11.465,70.507c-0.473,6.744-1.065,13.538-3.072,19.998c-3.384,10.894-9.515,19.444-21.515,21.977
		c-5.348,1.129-8.353-0.471-10.597-4.933c-0.87-1.729-0.786-3.355-0.493-5.208c4.305-27.263,4.609-54.646,3.635-82.201
		c-0.4-11.307,3.14-22.699,7.911-33.205c5.503-12.118,12.63-23.361,19.919-34.486c2.658-4.056,6.387-5.466,11.005-4.975
		c4.745,0.504,6.819,3.763,8.181,7.883C1250.429,960.638,1250.376,965.13,1250.425,968.673z"/>
	<path style="fill:#7B695F;" d="M834.49,1271.006c-0.745,1.286-1.491,2.572-2.236,3.859c-0.048-1.481-0.134-2.962-0.128-4.443
		c0.003-0.622,0.221-1.438,0.988-1.295C833.989,1269.29,834.457,1270.065,834.49,1271.006z"/>
</g>
</svg>
