<?xml version="1.0" encoding="utf-8"?>
<!-- Generator: Adobe Illustrator 27.5.0, SVG Export Plug-In . SVG Version: 6.00 Build 0)  -->
<svg version="1.1" xmlns="http://www.w3.org/2000/svg" xmlns:xlink="http://www.w3.org/1999/xlink" x="0px" y="0px"
	 viewBox="0 0 750 500" style="enable-background:new 0 0 750 500;" xml:space="preserve">
<g id="BACKGROUND">
	<g>
		<rect style="fill:#0F1027;" width="750" height="500"/>
	</g>
</g>
<g id="OBJECTS">
	<g>
		<defs>
			<rect id="SVGID_1_" width="750" height="500"/>
		</defs>
		<clipPath id="SVGID_00000022562997829546390690000017739958792357112452_">
			<use xlink:href="#SVGID_1_"  style="overflow:visible;"/>
		</clipPath>
		<g style="clip-path:url(#SVGID_00000022562997829546390690000017739958792357112452_);">
			<g>
				<path style="fill:none;stroke:#8F9294;stroke-width:1.0782;stroke-miterlimit:10;" d="M92.563-75.199L-45.679,63.043
					c0.64,3.953,1.47,7.84,2.484,11.655L104.217-72.715C100.403-73.729,96.515-74.559,92.563-75.199z"/>
				<path style="fill:none;stroke:#8F9294;stroke-width:1.0782;stroke-miterlimit:10;" d="M104.217-72.715L-43.195,74.697
					c0.971,3.651,2.099,7.237,3.396,10.743L114.96-69.319C111.454-70.616,107.868-71.743,104.217-72.715z"/>
				<path style="fill:none;stroke:#8F9294;stroke-width:1.0782;stroke-miterlimit:10;" d="M150.688-48.491l-169.66,169.66
					c2.15,2.554,4.394,5.027,6.746,7.393L158.081-41.745C155.715-44.097,153.242-46.341,150.688-48.491z"/>
				<path style="fill:none;stroke:#8F9294;stroke-width:1.0782;stroke-miterlimit:10;" d="M142.705-54.647L-25.128,113.186
					c1.946,2.746,3.993,5.413,6.156,7.983l169.66-169.66C148.119-50.654,145.452-52.702,142.705-54.647z"/>
				<path style="fill:none;stroke:#8F9294;stroke-width:1.0782;stroke-miterlimit:10;" d="M124.9-65.12L-35.6,95.38
					c1.503,3.156,3.154,6.226,4.916,9.223L134.123-60.203C131.126-61.966,128.056-63.617,124.9-65.12z"/>
				<path style="fill:none;stroke:#8F9294;stroke-width:1.0782;stroke-miterlimit:10;" d="M134.123-60.203L-30.684,104.603
					c1.732,2.945,3.588,5.805,5.556,8.583L142.705-54.647C139.928-56.616,137.068-58.472,134.123-60.203z"/>
				<path style="fill:none;stroke:#8F9294;stroke-width:1.0782;stroke-miterlimit:10;" d="M114.96-69.319L-39.799,85.44
					c1.253,3.388,2.657,6.703,4.199,9.94l160.5-160.5C121.663-66.661,118.348-68.065,114.96-69.319z"/>
				<path style="fill:none;stroke:#8F9294;stroke-width:1.0782;stroke-miterlimit:10;" d="M-38.97-0.222l68.267-68.267
					C-1.905-56.27-26.75-31.425-38.97-0.222z"/>
				<path style="fill:none;stroke:#8F9294;stroke-width:1.0782;stroke-miterlimit:10;" d="M29.297-68.489L-38.97-0.222
					c-2.521,6.438-4.526,13.132-5.916,20.055l94.237-94.237C42.43-73.016,35.735-71.01,29.297-68.489z"/>
				<path style="fill:none;stroke:#8F9294;stroke-width:1.0782;stroke-miterlimit:10;" d="M79.808-76.583L-47.064,50.288
					c0.234,4.318,0.707,8.57,1.384,12.755L92.563-75.199C88.378-75.876,84.125-76.349,79.808-76.583z"/>
				<path style="fill:none;stroke:#8F9294;stroke-width:1.0782;stroke-miterlimit:10;" d="M73.18-76.773
					c-2.55,0-5.074,0.106-7.584,0.262L-46.991,36.077c-0.156,2.51-0.262,5.034-0.262,7.584c0,2.225,0.07,4.433,0.189,6.628
					L79.808-76.583C77.613-76.702,75.405-76.773,73.18-76.773z"/>
				<path style="fill:none;stroke:#8F9294;stroke-width:1.0782;stroke-miterlimit:10;" d="M49.352-74.405l-94.237,94.237
					c-1.063,5.296-1.762,10.722-2.105,16.244L65.596-76.511C60.074-76.167,54.648-75.468,49.352-74.405z"/>
				<path style="fill:none;stroke:#8F9294;stroke-width:1.0782;stroke-miterlimit:10;" d="M191.887,23.421L52.941,162.367
					c4.157,0.704,8.383,1.2,12.673,1.466L193.353,36.095C193.087,31.804,192.591,27.578,191.887,23.421z"/>
				<path style="fill:none;stroke:#8F9294;stroke-width:1.0782;stroke-miterlimit:10;" d="M193.614,43.661
					c0-2.544-0.105-5.062-0.261-7.566L65.614,163.833c2.505,0.156,5.022,0.261,7.566,0.261c2.178,0,4.341-0.065,6.491-0.179
					L193.435,50.152C193.549,48.002,193.614,45.839,193.614,43.661z"/>
				<path style="fill:none;stroke:#8F9294;stroke-width:1.0782;stroke-miterlimit:10;" d="M193.435,50.152L79.671,163.915
					c5.477-0.291,10.849-0.97,16.108-1.969l95.686-95.686C192.464,61.001,193.144,55.629,193.435,50.152z"/>
				<path style="fill:none;stroke:#8F9294;stroke-width:1.0782;stroke-miterlimit:10;" d="M191.466,66.26l-95.686,95.686
					c6.755-1.283,13.312-3.117,19.617-5.478l70.592-70.591C188.348,79.572,190.182,73.015,191.466,66.26z"/>
				<path style="fill:none;stroke:#8F9294;stroke-width:1.0782;stroke-miterlimit:10;" d="M185.988,85.877l-70.592,70.591
					C147.943,144.282,173.801,118.424,185.988,85.877z"/>
				<path style="fill:none;stroke:#8F9294;stroke-width:1.0782;stroke-miterlimit:10;" d="M189.332,11.837L41.357,159.813
					c3.791,1.036,7.654,1.889,11.584,2.555L191.887,23.421C191.222,19.492,190.368,15.628,189.332,11.837z"/>
				<path style="fill:none;stroke:#8F9294;stroke-width:1.0782;stroke-miterlimit:10;" d="M171.069-26.455L3.065,141.549
					c2.762,1.982,5.602,3.86,8.532,5.607L176.676-17.923C174.929-20.853,173.051-23.693,171.069-26.455z"/>
				<path style="fill:none;stroke:#8F9294;stroke-width:1.0782;stroke-miterlimit:10;" d="M164.863-34.388L-4.869,135.344
					c2.555,2.177,5.201,4.245,7.934,6.205L171.069-26.455C169.108-29.187,167.04-31.834,164.863-34.388z"/>
				<path style="fill:none;stroke:#8F9294;stroke-width:1.0782;stroke-miterlimit:10;" d="M185.874,1.157L30.676,156.354
					c3.486,1.315,7.05,2.465,10.681,3.458L189.332,11.837C188.34,8.206,187.189,4.642,185.874,1.157z"/>
				<path style="fill:none;stroke:#8F9294;stroke-width:1.0782;stroke-miterlimit:10;" d="M158.081-41.745L-12.225,128.561
					c2.352,2.366,4.816,4.617,7.357,6.782L164.863-34.388C162.698-36.929,160.447-39.393,158.081-41.745z"/>
				<path style="fill:none;stroke:#8F9294;stroke-width:1.0782;stroke-miterlimit:10;" d="M181.638-8.746L20.773,152.118
					c3.221,1.559,6.53,2.963,9.903,4.236L185.874,1.157C184.601-2.217,183.197-5.526,181.638-8.746z"/>
				<path style="fill:none;stroke:#8F9294;stroke-width:1.0782;stroke-miterlimit:10;" d="M176.676-17.923L11.597,147.156
					c2.981,1.778,6.036,3.442,9.176,4.962L181.638-8.746C180.118-11.887,178.453-14.942,176.676-17.923z"/>
			</g>
			<g>
				<polygon style="fill:#FDFDFD;" points="91.226,130.027 85.162,123.963 76.319,132.807 67.476,123.963 61.411,130.027 
					70.255,138.871 61.411,147.714 67.476,153.778 76.319,144.935 85.162,153.778 91.226,147.714 82.383,138.871 				"/>
				<polygon style="fill:#FF2C2C;" points="91.226,185.284 85.162,179.22 76.319,188.063 67.476,179.22 61.411,185.284 
					70.255,194.127 61.411,202.97 67.476,209.034 76.319,200.191 85.162,209.034 91.226,202.97 82.383,194.127 				"/>
				<polygon style="fill:#FDFDFD;" points="91.226,240.54 85.162,234.476 76.319,243.319 67.476,234.476 61.411,240.54 
					70.255,249.383 61.411,258.227 67.476,264.291 76.319,255.447 85.162,264.291 91.226,258.227 82.383,249.383 				"/>
			</g>
			<path style="fill:#FDFDFD;" d="M225.333,383.022c-78.013,0-141.255,63.242-141.255,141.255
				c0,78.013,63.242,141.255,141.255,141.255c78.013,0,141.255-63.242,141.255-141.255
				C366.588,446.264,303.346,383.022,225.333,383.022z M225.333,637.297c-62.419,0-113.02-50.601-113.02-113.02
				s50.601-113.02,113.02-113.02c62.419,0,113.02,50.601,113.02,113.02S287.752,637.297,225.333,637.297z"/>
			<g>
				<g>
					
						<rect x="219.353" y="319.541" style="fill:none;stroke:#8F9294;stroke-width:1.0782;stroke-miterlimit:10;" width="3.969" height="3.969"/>
					
						<rect x="249.689" y="319.541" style="fill:none;stroke:#8F9294;stroke-width:1.0782;stroke-miterlimit:10;" width="3.969" height="3.969"/>
					
						<rect x="280.024" y="319.541" style="fill:none;stroke:#8F9294;stroke-width:1.0782;stroke-miterlimit:10;" width="3.969" height="3.969"/>
					
						<rect x="310.36" y="319.541" style="fill:none;stroke:#8F9294;stroke-width:1.0782;stroke-miterlimit:10;" width="3.969" height="3.969"/>
					
						<rect x="340.695" y="319.541" style="fill:none;stroke:#8F9294;stroke-width:1.0782;stroke-miterlimit:10;" width="3.969" height="3.969"/>
					
						<rect x="371.031" y="319.541" style="fill:none;stroke:#8F9294;stroke-width:1.0782;stroke-miterlimit:10;" width="3.969" height="3.969"/>
				</g>
				<g>
					
						<rect x="219.353" y="341.655" style="fill:none;stroke:#8F9294;stroke-width:1.0782;stroke-miterlimit:10;" width="3.969" height="3.969"/>
					
						<rect x="249.689" y="341.655" style="fill:none;stroke:#FF2C2C;stroke-width:1.0782;stroke-miterlimit:10;" width="3.969" height="3.969"/>
					
						<rect x="280.024" y="341.655" style="fill:none;stroke:#8F9294;stroke-width:1.0782;stroke-miterlimit:10;" width="3.969" height="3.969"/>
					
						<rect x="310.36" y="341.655" style="fill:none;stroke:#8F9294;stroke-width:1.0782;stroke-miterlimit:10;" width="3.969" height="3.969"/>
					
						<rect x="340.695" y="341.655" style="fill:none;stroke:#8F9294;stroke-width:1.0782;stroke-miterlimit:10;" width="3.969" height="3.969"/>
					
						<rect x="371.031" y="341.655" style="fill:none;stroke:#8F9294;stroke-width:1.0782;stroke-miterlimit:10;" width="3.969" height="3.969"/>
				</g>
				<g>
					
						<rect x="219.353" y="363.769" style="fill:none;stroke:#8F9294;stroke-width:1.0782;stroke-miterlimit:10;" width="3.969" height="3.969"/>
					
						<rect x="249.689" y="363.769" style="fill:none;stroke:#8F9294;stroke-width:1.0782;stroke-miterlimit:10;" width="3.969" height="3.969"/>
					
						<rect x="280.024" y="363.769" style="fill:none;stroke:#8F9294;stroke-width:1.0782;stroke-miterlimit:10;" width="3.969" height="3.969"/>
					
						<rect x="310.36" y="363.769" style="fill:none;stroke:#FF2C2C;stroke-width:1.0782;stroke-miterlimit:10;" width="3.969" height="3.969"/>
					
						<rect x="340.695" y="363.769" style="fill:none;stroke:#8F9294;stroke-width:1.0782;stroke-miterlimit:10;" width="3.969" height="3.969"/>
					
						<rect x="371.031" y="363.769" style="fill:none;stroke:#8F9294;stroke-width:1.0782;stroke-miterlimit:10;" width="3.969" height="3.969"/>
				</g>
				<g>
					
						<rect x="219.353" y="385.883" style="fill:none;stroke:#8F9294;stroke-width:1.0782;stroke-miterlimit:10;" width="3.969" height="3.969"/>
					
						<rect x="249.689" y="385.883" style="fill:none;stroke:#8F9294;stroke-width:1.0782;stroke-miterlimit:10;" width="3.969" height="3.969"/>
					
						<rect x="280.024" y="385.883" style="fill:none;stroke:#8F9294;stroke-width:1.0782;stroke-miterlimit:10;" width="3.969" height="3.969"/>
					
						<rect x="310.36" y="385.883" style="fill:none;stroke:#8F9294;stroke-width:1.0782;stroke-miterlimit:10;" width="3.969" height="3.969"/>
					
						<rect x="340.695" y="385.883" style="fill:none;stroke:#8F9294;stroke-width:1.0782;stroke-miterlimit:10;" width="3.969" height="3.969"/>
					
						<rect x="371.031" y="385.883" style="fill:none;stroke:#8F9294;stroke-width:1.0782;stroke-miterlimit:10;" width="3.969" height="3.969"/>
				</g>
				<g>
					
						<rect x="219.353" y="407.996" style="fill:none;stroke:#8F9294;stroke-width:1.0782;stroke-miterlimit:10;" width="3.969" height="3.969"/>
					<rect x="249.689" y="407.996" style="fill:#0F1027;" width="3.969" height="3.969"/>
					<rect x="280.024" y="407.996" style="fill:#0F1027;" width="3.969" height="3.969"/>
					
						<rect x="310.36" y="407.996" style="fill:none;stroke:#8F9294;stroke-width:1.0782;stroke-miterlimit:10;" width="3.969" height="3.969"/>
					
						<rect x="340.695" y="407.996" style="fill:none;stroke:#FF2C2C;stroke-width:1.0782;stroke-miterlimit:10;" width="3.969" height="3.969"/>
					
						<rect x="371.031" y="407.996" style="fill:none;stroke:#8F9294;stroke-width:1.0782;stroke-miterlimit:10;" width="3.969" height="3.969"/>
				</g>
				<g>
					
						<rect x="219.353" y="430.11" style="fill:none;stroke:#8F9294;stroke-width:1.0782;stroke-miterlimit:10;" width="3.969" height="3.969"/>
					
						<rect x="249.689" y="430.11" style="fill:none;stroke:#8F9294;stroke-width:1.0782;stroke-miterlimit:10;" width="3.969" height="3.969"/>
					
						<rect x="280.024" y="430.11" style="fill:none;stroke:#8F9294;stroke-width:1.0782;stroke-miterlimit:10;" width="3.969" height="3.969"/>
					<rect x="310.36" y="430.11" style="fill:#0F1027;" width="3.969" height="3.969"/>
					
						<rect x="340.695" y="430.11" style="fill:none;stroke:#8F9294;stroke-width:1.0782;stroke-miterlimit:10;" width="3.969" height="3.969"/>
					
						<rect x="371.031" y="430.11" style="fill:none;stroke:#8F9294;stroke-width:1.0782;stroke-miterlimit:10;" width="3.969" height="3.969"/>
				</g>
				<g>
					
						<rect x="219.353" y="452.224" style="fill:none;stroke:#8F9294;stroke-width:1.0782;stroke-miterlimit:10;" width="3.969" height="3.969"/>
					
						<rect x="249.689" y="452.224" style="fill:none;stroke:#8F9294;stroke-width:1.0782;stroke-miterlimit:10;" width="3.969" height="3.969"/>
					
						<rect x="280.024" y="452.224" style="fill:none;stroke:#8F9294;stroke-width:1.0782;stroke-miterlimit:10;" width="3.969" height="3.969"/>
					
						<rect x="310.36" y="452.224" style="fill:none;stroke:#8F9294;stroke-width:1.0782;stroke-miterlimit:10;" width="3.969" height="3.969"/>
					<rect x="340.695" y="452.224" style="fill:#0F1027;" width="3.969" height="3.969"/>
					
						<rect x="371.031" y="452.224" style="fill:none;stroke:#8F9294;stroke-width:1.0782;stroke-miterlimit:10;" width="3.969" height="3.969"/>
				</g>
			</g>
			<g>
				<path style="fill:none;stroke:#8F9294;stroke-width:2;stroke-miterlimit:10;" d="M106.912,321.471l-212.071,212.071
					c-7.236,7.236-18.968,7.236-26.204,0l0,0c-7.236-7.236-7.236-18.968,0-26.204L80.708,295.267c7.236-7.236,18.968-7.236,26.205,0
					l0,0C114.148,302.503,114.148,314.235,106.912,321.471z"/>
				<path style="fill:none;stroke:#8F9294;stroke-width:2;stroke-miterlimit:10;" d="M94.001,412.306L-67.87,574.177
					c-5.523,5.523-14.478,5.523-20.002,0l0,0c-5.523-5.523-5.523-14.478,0-20.001L73.999,392.304c5.523-5.523,14.478-5.523,20.002,0
					h0C99.524,397.828,99.524,406.783,94.001,412.306z"/>
			</g>
			<g>
				<polygon style="fill:#FDFDFD;" points="241.469,60.351 224.316,50.448 224.316,70.254 				"/>
				<polygon style="fill:#FDFDFD;" points="270.197,60.351 253.044,50.448 253.044,70.254 				"/>
				<polygon style="fill:#FF2C2C;" points="298.925,60.351 281.772,50.448 281.772,70.254 				"/>
			</g>
			<g>
				<polygon style="fill:#FDFDFD;" points="697.221,390.082 687.318,407.234 707.123,407.234 				"/>
				<polygon style="fill:#FDFDFD;" points="697.221,361.354 687.318,378.507 707.123,378.507 				"/>
				<polygon style="fill:#FDFDFD;" points="697.221,332.626 687.318,349.779 707.124,349.779 				"/>
				<polygon style="fill:#FF2C2C;" points="697.221,245.931 691.475,255.882 702.966,255.882 				"/>
			</g>
			<g>
				<g>
					
						<line style="fill:none;stroke:#D8D9DA;stroke-width:0.7797;stroke-miterlimit:10;" x1="623.578" y1="447.419" x2="609.999" y2="460.998"/>
					
						<line style="fill:none;stroke:#D8D9DA;stroke-width:0.7797;stroke-miterlimit:10;" x1="630.194" y1="447.419" x2="616.615" y2="460.998"/>
					
						<line style="fill:none;stroke:#D8D9DA;stroke-width:0.7797;stroke-miterlimit:10;" x1="636.81" y1="447.419" x2="623.23" y2="460.998"/>
					
						<line style="fill:none;stroke:#D8D9DA;stroke-width:0.7797;stroke-miterlimit:10;" x1="643.425" y1="447.419" x2="629.846" y2="460.998"/>
					
						<line style="fill:none;stroke:#D8D9DA;stroke-width:0.7797;stroke-miterlimit:10;" x1="650.041" y1="447.419" x2="636.461" y2="460.998"/>
					
						<line style="fill:none;stroke:#D8D9DA;stroke-width:0.7797;stroke-miterlimit:10;" x1="656.656" y1="447.419" x2="643.077" y2="460.998"/>
					
						<line style="fill:none;stroke:#D8D9DA;stroke-width:0.7797;stroke-miterlimit:10;" x1="663.272" y1="447.419" x2="649.693" y2="460.998"/>
					
						<line style="fill:none;stroke:#D8D9DA;stroke-width:0.7797;stroke-miterlimit:10;" x1="669.888" y1="447.419" x2="656.308" y2="460.998"/>
					
						<line style="fill:none;stroke:#D8D9DA;stroke-width:0.7797;stroke-miterlimit:10;" x1="676.503" y1="447.419" x2="662.924" y2="460.998"/>
					
						<line style="fill:none;stroke:#D8D9DA;stroke-width:0.7797;stroke-miterlimit:10;" x1="683.119" y1="447.419" x2="669.539" y2="460.998"/>
					
						<line style="fill:none;stroke:#D8D9DA;stroke-width:0.7797;stroke-miterlimit:10;" x1="689.734" y1="447.419" x2="676.155" y2="460.998"/>
					
						<line style="fill:none;stroke:#D8D9DA;stroke-width:0.7797;stroke-miterlimit:10;" x1="696.35" y1="447.419" x2="682.771" y2="460.998"/>
					
						<line style="fill:none;stroke:#D8D9DA;stroke-width:0.7797;stroke-miterlimit:10;" x1="702.966" y1="447.419" x2="689.386" y2="460.998"/>
				</g>
			</g>
			<rect x="609.999" y="434.212" style="fill:#FF2C2C;" width="59.889" height="5.023"/>
			<rect x="677.999" y="434.212" style="fill:#FDFDFD;" width="24.967" height="5.023"/>
			<g>
				<g>
					<path style="fill:#606060;stroke:#D8D9DA;stroke-miterlimit:10;" d="M670.758,38.46c0,1.154-0.935,2.089-2.089,2.089
						s-2.089-0.935-2.089-2.089c0-1.154,0.935-2.089,2.089-2.089S670.758,37.307,670.758,38.46z"/>
					<path style="fill:none;stroke:#D8D9DA;stroke-width:0.7797;stroke-miterlimit:10;" d="M686.079,38.46
						c0,1.154-0.935,2.089-2.089,2.089s-2.089-0.935-2.089-2.089c0-1.154,0.935-2.089,2.089-2.089S686.079,37.307,686.079,38.46z"/>
					<path style="fill:none;stroke:#D8D9DA;stroke-width:0.7797;stroke-miterlimit:10;" d="M701.399,38.46
						c0,1.154-0.935,2.089-2.089,2.089c-1.154,0-2.089-0.935-2.089-2.089c0-1.154,0.935-2.089,2.089-2.089
						C700.464,36.371,701.399,37.307,701.399,38.46z"/>
				</g>
				<g>
					<circle style="fill:none;stroke:#D8D9DA;stroke-width:0.7797;stroke-miterlimit:10;" cx="653.349" cy="51.692" r="2.089"/>
					<path style="fill:none;stroke:#D8D9DA;stroke-width:0.7797;stroke-miterlimit:10;" d="M670.758,51.692
						c0,1.154-0.935,2.089-2.089,2.089s-2.089-0.935-2.089-2.089s0.935-2.089,2.089-2.089S670.758,50.538,670.758,51.692z"/>
					<path style="fill:none;stroke:#D8D9DA;stroke-width:0.7797;stroke-miterlimit:10;" d="M686.079,51.692
						c0,1.154-0.935,2.089-2.089,2.089s-2.089-0.935-2.089-2.089s0.935-2.089,2.089-2.089S686.079,50.538,686.079,51.692z"/>
					<path style="fill:none;stroke:#FF2C2C;stroke-miterlimit:10;" d="M686.079,63.994c0,1.154-0.935,2.089-2.089,2.089
						s-2.089-0.935-2.089-2.089s0.935-2.089,2.089-2.089S686.079,62.841,686.079,63.994z"/>
				</g>
			</g>
			<g>
				<g>
					<g>
						
							<line style="fill:none;stroke:#8F9294;stroke-width:0.3881;stroke-miterlimit:10;" x1="595.157" y1="87.622" x2="595.157" y2="98.579"/>
						
							<line style="fill:none;stroke:#8F9294;stroke-width:0.3881;stroke-miterlimit:10;" x1="589.679" y1="93.101" x2="600.636" y2="93.101"/>
					</g>
					<g>
						
							<line style="fill:none;stroke:#8F9294;stroke-width:0.3881;stroke-miterlimit:10;" x1="625.015" y1="87.622" x2="625.015" y2="98.579"/>
						
							<line style="fill:none;stroke:#8F9294;stroke-width:0.3881;stroke-miterlimit:10;" x1="619.536" y1="93.101" x2="630.493" y2="93.101"/>
					</g>
					<g>
						
							<line style="fill:none;stroke:#8F9294;stroke-width:0.3881;stroke-miterlimit:10;" x1="654.872" y1="87.622" x2="654.872" y2="98.579"/>
						
							<line style="fill:none;stroke:#8F9294;stroke-width:0.3881;stroke-miterlimit:10;" x1="649.394" y1="93.101" x2="660.351" y2="93.101"/>
					</g>
					<g>
						
							<line style="fill:none;stroke:#8F9294;stroke-width:0.3881;stroke-miterlimit:10;" x1="684.73" y1="87.622" x2="684.73" y2="98.579"/>
						
							<line style="fill:none;stroke:#8F9294;stroke-width:0.3881;stroke-miterlimit:10;" x1="679.251" y1="93.101" x2="690.208" y2="93.101"/>
					</g>
				</g>
				<g>
					<g>
						
							<line style="fill:none;stroke:#8F9294;stroke-width:0.3881;stroke-miterlimit:10;" x1="595.157" y1="110.358" x2="595.157" y2="121.314"/>
						
							<line style="fill:none;stroke:#8F9294;stroke-width:0.3881;stroke-miterlimit:10;" x1="589.679" y1="115.836" x2="600.636" y2="115.836"/>
					</g>
					<g>
						
							<line style="fill:none;stroke:#8F9294;stroke-width:0.3881;stroke-miterlimit:10;" x1="625.015" y1="110.358" x2="625.015" y2="121.314"/>
						
							<line style="fill:none;stroke:#8F9294;stroke-width:0.3881;stroke-miterlimit:10;" x1="619.536" y1="115.836" x2="630.493" y2="115.836"/>
					</g>
					<g>
						
							<line style="fill:none;stroke:#8F9294;stroke-width:0.3881;stroke-miterlimit:10;" x1="654.872" y1="110.358" x2="654.872" y2="121.314"/>
						
							<line style="fill:none;stroke:#8F9294;stroke-width:0.3881;stroke-miterlimit:10;" x1="649.394" y1="115.836" x2="660.351" y2="115.836"/>
					</g>
					<g>
						
							<line style="fill:none;stroke:#8F9294;stroke-width:0.3881;stroke-miterlimit:10;" x1="684.73" y1="110.358" x2="684.73" y2="121.314"/>
						
							<line style="fill:none;stroke:#8F9294;stroke-width:0.3881;stroke-miterlimit:10;" x1="679.251" y1="115.836" x2="690.208" y2="115.836"/>
					</g>
				</g>
				<g>
					<g>
						
							<line style="fill:none;stroke:#8F9294;stroke-width:0.3881;stroke-miterlimit:10;" x1="595.157" y1="133.093" x2="595.157" y2="144.05"/>
						
							<line style="fill:none;stroke:#8F9294;stroke-width:0.3881;stroke-miterlimit:10;" x1="589.679" y1="138.572" x2="600.636" y2="138.572"/>
					</g>
					<g>
						
							<line style="fill:none;stroke:#8F9294;stroke-width:0.3881;stroke-miterlimit:10;" x1="625.015" y1="133.093" x2="625.015" y2="144.05"/>
						
							<line style="fill:none;stroke:#8F9294;stroke-width:0.3881;stroke-miterlimit:10;" x1="619.536" y1="138.572" x2="630.493" y2="138.572"/>
					</g>
					<g>
						
							<line style="fill:none;stroke:#8F9294;stroke-width:0.3881;stroke-miterlimit:10;" x1="654.872" y1="133.093" x2="654.872" y2="144.05"/>
						
							<line style="fill:none;stroke:#8F9294;stroke-width:0.3881;stroke-miterlimit:10;" x1="649.394" y1="138.572" x2="660.351" y2="138.572"/>
					</g>
					<g>
						
							<line style="fill:none;stroke:#8F9294;stroke-width:0.3881;stroke-miterlimit:10;" x1="684.73" y1="133.093" x2="684.73" y2="144.05"/>
						
							<line style="fill:none;stroke:#8F9294;stroke-width:0.3881;stroke-miterlimit:10;" x1="679.251" y1="138.572" x2="690.208" y2="138.572"/>
					</g>
				</g>
				<g>
					<g>
						
							<line style="fill:none;stroke:#8F9294;stroke-width:0.3881;stroke-miterlimit:10;" x1="595.157" y1="155.829" x2="595.157" y2="166.786"/>
						
							<line style="fill:none;stroke:#8F9294;stroke-width:0.3881;stroke-miterlimit:10;" x1="589.679" y1="161.307" x2="600.636" y2="161.307"/>
					</g>
					<g>
						
							<line style="fill:none;stroke:#8F9294;stroke-width:0.3881;stroke-miterlimit:10;" x1="625.015" y1="155.829" x2="625.015" y2="166.786"/>
						
							<line style="fill:none;stroke:#8F9294;stroke-width:0.3881;stroke-miterlimit:10;" x1="619.536" y1="161.307" x2="630.493" y2="161.307"/>
					</g>
					<g>
						
							<line style="fill:none;stroke:#8F9294;stroke-width:0.3881;stroke-miterlimit:10;" x1="654.872" y1="155.829" x2="654.872" y2="166.786"/>
						
							<line style="fill:none;stroke:#8F9294;stroke-width:0.3881;stroke-miterlimit:10;" x1="649.394" y1="161.307" x2="660.351" y2="161.307"/>
					</g>
					<g>
						
							<line style="fill:none;stroke:#8F9294;stroke-width:0.3881;stroke-miterlimit:10;" x1="684.73" y1="155.829" x2="684.73" y2="166.786"/>
						
							<line style="fill:none;stroke:#8F9294;stroke-width:0.3881;stroke-miterlimit:10;" x1="679.251" y1="161.307" x2="690.208" y2="161.307"/>
					</g>
				</g>
			</g>
			<g>
				<path style="fill:none;stroke:#8F9294;stroke-linecap:round;stroke-linejoin:round;stroke-miterlimit:10;" d="M600.634,220.149
					c-51.094-18.972-90.439-62.12-104.137-115.546"/>
				<path style="fill:none;stroke:#575758;stroke-linecap:round;stroke-linejoin:round;stroke-miterlimit:10;" d="M724.644,217.281
					c-20.153,8.57-42.327,13.312-65.608,13.312c-9.731,0-19.268-0.828-28.545-2.418"/>
				<path style="fill:none;stroke:#575758;stroke-linecap:round;stroke-linejoin:round;stroke-miterlimit:10;" d="M493.363,36.093
					c12.794-79.971,82.097-141.075,165.673-141.075c92.666,0,167.787,75.121,167.787,167.787
					c0,69.385-42.117,128.934-102.18,154.476"/>
			</g>
			<path style="fill:none;stroke:#575758;stroke-linecap:round;stroke-linejoin:round;stroke-miterlimit:10;" d="M630.493,226.482
				c0,2.443-1.98,4.423-4.423,4.423s-4.423-1.98-4.423-4.423c0-2.443,1.98-4.423,4.423-4.423S630.493,224.039,630.493,226.482z"/>
			
				<rect x="422.706" y="36.613" style="fill:none;stroke:#8F9294;stroke-linecap:round;stroke-linejoin:round;stroke-miterlimit:10;" width="121.485" height="10.186"/>
			<g>
				<g>
					<g>
						
							<rect x="242.795" y="-12.989" transform="matrix(0.7071 -0.7071 0.7071 0.7071 79.4164 170)" style="fill:#8F9294;" width="4.248" height="4.248"/>
						
							<rect x="254.823" y="-0.961" transform="matrix(0.7071 -0.7071 0.7071 0.7071 74.4789 181.9196)" style="fill:#8F9294;" width="4.032" height="4.032"/>
						
							<rect x="266.851" y="11.066" transform="matrix(0.7071 -0.7071 0.7071 0.7071 69.5401 193.8376)" style="fill:#8F9294;" width="3.816" height="3.816"/>
						
							<rect x="278.879" y="23.094" transform="matrix(0.7071 -0.7071 0.7071 0.7071 64.6026 205.7569)" style="fill:#8F9294;" width="3.599" height="3.599"/>
						
							<rect x="290.907" y="35.122" transform="matrix(0.7071 -0.7071 0.7071 0.7071 59.665 217.676)" style="fill:#8F9294;" width="3.383" height="3.383"/>
						
							<rect x="302.935" y="47.15" transform="matrix(0.7071 -0.7071 0.7071 0.7071 54.7314 229.6007)" style="fill:#8F9294;" width="3.167" height="3.167"/>
						
							<rect x="314.963" y="59.178" transform="matrix(0.7071 -0.7071 0.7071 0.7071 49.7941 241.5205)" style="fill:#8F9294;" width="2.95" height="2.95"/>
						
							<rect x="326.991" y="71.206" transform="matrix(0.7071 -0.7071 0.7071 0.7071 44.8567 253.4403)" style="fill:#8F9294;" width="2.734" height="2.734"/>
						
							<rect x="339.019" y="83.234" transform="matrix(0.7071 -0.7071 0.7071 0.7071 39.9194 265.3601)" style="fill:#8F9294;" width="2.518" height="2.518"/>
						
							<rect x="351.047" y="95.262" transform="matrix(0.7071 -0.7071 0.7071 0.7071 34.982 277.2799)" style="fill:#8F9294;" width="2.301" height="2.301"/>
						
							<rect x="363.075" y="107.29" transform="matrix(0.7071 -0.7071 0.7071 0.7071 30.0447 289.1997)" style="fill:#8F9294;" width="2.085" height="2.085"/>
						
							<rect x="375.103" y="119.318" transform="matrix(0.7071 -0.7071 0.7071 0.7071 25.1074 301.1195)" style="fill:#8F9294;" width="1.869" height="1.869"/>
					</g>
				</g>
				<g>
					<g>
						
							<rect x="252.453" y="-22.647" transform="matrix(0.7071 -0.7071 0.7071 0.7071 89.0755 174.0018)" style="fill:#8F9294;" width="4.248" height="4.248"/>
						
							<rect x="264.481" y="-10.619" transform="matrix(0.7071 -0.7071 0.7071 0.7071 84.1363 185.9199)" style="fill:#8F9294;" width="4.032" height="4.032"/>
						
							<rect x="276.509" y="1.409" transform="matrix(0.7071 -0.7071 0.7071 0.7071 79.2007 197.8412)" style="fill:#8F9294;" width="3.816" height="3.816"/>
						
							<rect x="288.537" y="13.437" transform="matrix(0.7071 -0.7071 0.7071 0.7071 74.2637 209.7614)" style="fill:#8F9294;" width="3.599" height="3.599"/>
						
							<rect x="300.565" y="25.465" transform="matrix(0.7071 -0.7071 0.7071 0.7071 69.326 221.6809)" style="fill:#8F9294;" width="3.383" height="3.383"/>
						
							<rect x="312.593" y="37.493" transform="matrix(0.7071 -0.7071 0.7071 0.7071 64.389 233.601)" style="fill:#8F9294;" width="3.167" height="3.167"/>
						
							<rect x="324.621" y="49.521" transform="matrix(0.7071 -0.7071 0.7071 0.7071 59.4517 245.5208)" style="fill:#8F9294;" width="2.95" height="2.95"/>
						
							<rect x="336.649" y="61.549" transform="matrix(0.7071 -0.7071 0.7071 0.7071 54.5143 257.4406)" style="fill:#8F9294;" width="2.734" height="2.734"/>
						
							<rect x="348.676" y="73.577" transform="matrix(0.7071 -0.7071 0.7071 0.7071 49.5715 269.352)" style="fill:#8F9294;" width="2.518" height="2.518"/>
						
							<rect x="360.704" y="85.605" transform="matrix(0.7071 -0.7071 0.7071 0.7071 44.6396 281.2802)" style="fill:#8F9294;" width="2.301" height="2.301"/>
						
							<rect x="372.732" y="97.633" transform="matrix(0.7071 -0.7071 0.7071 0.7071 39.6957 293.1887)" style="fill:#8F9294;" width="2.085" height="2.085"/>
						
							<rect x="384.76" y="109.661" transform="matrix(0.7071 -0.7071 0.7071 0.7071 34.765 305.1198)" style="fill:#8F9294;" width="1.869" height="1.869"/>
					</g>
				</g>
				<g>
					<g>
						
							<rect x="262.11" y="-32.305" transform="matrix(0.7071 -0.7071 0.7071 0.7071 98.7298 177.9995)" style="fill:#8F9294;" width="4.248" height="4.248"/>
						
							<rect x="274.138" y="-20.277" transform="matrix(0.7071 -0.7071 0.7071 0.7071 93.796 189.9221)" style="fill:#8F9294;" width="4.032" height="4.032"/>
						
							<rect x="286.166" y="-8.249" transform="matrix(0.7071 -0.7071 0.7071 0.7071 88.8583 201.8416)" style="fill:#8F9294;" width="3.816" height="3.816"/>
						
							<rect x="298.194" y="3.779" transform="matrix(0.7071 -0.7071 0.7071 0.7071 83.9189 213.7592)" style="fill:#8F9294;" width="3.599" height="3.599"/>
						
							<rect x="310.222" y="15.807" transform="matrix(0.7071 -0.7071 0.7071 0.7071 78.984 225.6815)" style="fill:#8F9294;" width="3.383" height="3.383"/>
						
							<rect x="322.25" y="27.835" transform="matrix(0.7071 -0.7071 0.7071 0.7071 74.0466 237.6013)" style="fill:#8F9294;" width="3.167" height="3.167"/>
						
							<rect x="334.278" y="39.863" transform="matrix(0.7071 -0.7071 0.7071 0.7071 69.1093 249.5211)" style="fill:#8F9294;" width="2.95" height="2.95"/>
						
							<rect x="346.306" y="51.891" transform="matrix(0.7071 -0.7071 0.7071 0.7071 64.1719 261.4409)" style="fill:#8F9294;" width="2.734" height="2.734"/>
						
							<rect x="358.334" y="63.919" transform="matrix(0.7071 -0.7071 0.7071 0.7071 59.2346 273.3607)" style="fill:#8F9294;" width="2.518" height="2.518"/>
						
							<rect x="370.362" y="75.947" transform="matrix(0.7071 -0.7071 0.7071 0.7071 54.2973 285.2805)" style="fill:#8F9294;" width="2.301" height="2.301"/>
						
							<rect x="382.39" y="87.975" transform="matrix(0.7071 -0.7071 0.7071 0.7071 49.3528 297.189)" style="fill:#8F9294;" width="2.085" height="2.085"/>
						
							<rect x="394.418" y="100.003" transform="matrix(0.7071 -0.7071 0.7071 0.7071 44.4226 309.1201)" style="fill:#8F9294;" width="1.869" height="1.869"/>
					</g>
				</g>
				<g>
					<g>
						
							<rect x="271.768" y="-41.962" transform="matrix(0.7071 -0.7071 0.7071 0.7071 108.3946 182.0054)" style="fill:#8F9294;" width="4.248" height="4.248"/>
						
							<rect x="283.796" y="-29.934" transform="matrix(0.7071 -0.7071 0.7071 0.7071 103.4575 193.9256)" style="fill:#8F9294;" width="4.032" height="4.032"/>
						
							<rect x="295.824" y="-17.906" transform="matrix(0.7071 -0.7071 0.7071 0.7071 98.5204 205.8459)" style="fill:#8F9294;" width="3.816" height="3.816"/>
						
							<rect x="307.852" y="-5.878" transform="matrix(0.7071 -0.7071 0.7071 0.7071 93.578 217.7612)" style="fill:#8F9294;" width="3.599" height="3.599"/>
						
							<rect x="319.88" y="6.15" transform="matrix(0.7071 -0.7071 0.7071 0.7071 88.6406 229.6809)" style="fill:#8F9294;" width="3.383" height="3.383"/>
						
							<rect x="331.908" y="18.178" transform="matrix(0.7071 -0.7071 0.7071 0.7071 83.7038 241.6012)" style="fill:#8F9294;" width="3.167" height="3.167"/>
						
							<rect x="343.936" y="30.206" transform="matrix(0.7071 -0.7071 0.7071 0.7071 78.7669 253.5214)" style="fill:#8F9294;" width="2.95" height="2.95"/>
						
							<rect x="355.964" y="42.233" transform="matrix(0.7071 -0.7071 0.7071 0.7071 73.8295 265.4412)" style="fill:#8F9294;" width="2.734" height="2.734"/>
						
							<rect x="367.992" y="54.261" transform="matrix(0.7071 -0.7071 0.7071 0.7071 68.8922 277.3611)" style="fill:#8F9294;" width="2.518" height="2.518"/>
						
							<rect x="380.02" y="66.289" transform="matrix(0.7071 -0.7071 0.7071 0.7071 63.9542 289.2799)" style="fill:#8F9294;" width="2.301" height="2.301"/>
						
							<rect x="392.048" y="78.317" transform="matrix(0.7071 -0.7071 0.7071 0.7071 59.025 301.212)" style="fill:#8F9294;" width="2.085" height="2.085"/>
						
							<rect x="404.076" y="90.345" transform="matrix(0.7071 -0.7071 0.7071 0.7071 54.081 313.1219)" style="fill:#8F9294;" width="1.869" height="1.869"/>
					</g>
				</g>
				<g>
					<g>
						
							<rect x="281.426" y="-51.62" transform="matrix(0.7071 -0.7071 0.7071 0.7071 118.0525 186.0057)" style="fill:#8F9294;" width="4.248" height="4.248"/>
						
							<rect x="293.454" y="-39.592" transform="matrix(0.7071 -0.7071 0.7071 0.7071 113.1153 197.9259)" style="fill:#8F9294;" width="4.032" height="4.032"/>
						
							<rect x="305.482" y="-27.564" transform="matrix(0.7071 -0.7071 0.7071 0.7071 108.1782 209.8462)" style="fill:#8F9294;" width="3.815" height="3.815"/>
						
							<rect x="317.509" y="-15.536" transform="matrix(0.7071 -0.7071 0.7071 0.7071 103.2408 221.7662)" style="fill:#8F9294;" width="3.599" height="3.599"/>
						
							<rect x="329.537" y="-3.508" transform="matrix(0.7071 -0.7071 0.7071 0.7071 98.3007 233.6837)" style="fill:#8F9294;" width="3.383" height="3.383"/>
						
							<rect x="341.565" y="8.52" transform="matrix(0.7071 -0.7071 0.7071 0.7071 93.3671 245.6075)" style="fill:#8F9294;" width="3.167" height="3.167"/>
						
							<rect x="353.593" y="20.548" transform="matrix(0.7071 -0.7071 0.7071 0.7071 88.4301 257.5281)" style="fill:#8F9294;" width="2.95" height="2.95"/>
						
							<rect x="365.621" y="32.576" transform="matrix(0.7071 -0.7071 0.7071 0.7071 83.4871 269.4415)" style="fill:#8F9294;" width="2.734" height="2.734"/>
						
							<rect x="377.649" y="44.604" transform="matrix(0.7071 -0.7071 0.7071 0.7071 78.5564 281.3698)" style="fill:#8F9294;" width="2.518" height="2.518"/>
						
							<rect x="389.677" y="56.632" transform="matrix(0.7071 -0.7071 0.7071 0.7071 73.6125 293.2811)" style="fill:#8F9294;" width="2.301" height="2.301"/>
						
							<rect x="401.705" y="68.66" transform="matrix(0.7071 -0.7071 0.7071 0.7071 68.6831 305.2123)" style="fill:#8F9294;" width="2.085" height="2.085"/>
						
							<rect x="413.733" y="80.688" transform="matrix(0.7071 -0.7071 0.7071 0.7071 63.7378 317.1207)" style="fill:#8F9294;" width="1.869" height="1.869"/>
					</g>
				</g>
				<g>
					<g>
						
							<rect x="291.083" y="-61.277" transform="matrix(0.7071 -0.7071 0.7071 0.7071 127.7103 190.006)" style="fill:#8F9294;" width="4.248" height="4.248"/>
						
							<rect x="303.111" y="-49.249" transform="matrix(0.7071 -0.7071 0.7071 0.7071 122.7732 201.9262)" style="fill:#8F9294;" width="4.032" height="4.032"/>
						
							<rect x="315.139" y="-37.221" transform="matrix(0.7071 -0.7071 0.7071 0.7071 117.8361 213.8465)" style="fill:#8F9294;" width="3.815" height="3.815"/>
						
							<rect x="327.167" y="-25.194" transform="matrix(0.7071 -0.7071 0.7071 0.7071 112.899 225.7669)" style="fill:#8F9294;" width="3.599" height="3.599"/>
						
							<rect x="339.195" y="-13.166" transform="matrix(0.7071 -0.7071 0.7071 0.7071 107.9594 237.6849)" style="fill:#8F9294;" width="3.383" height="3.383"/>
						
							<rect x="351.223" y="-1.138" transform="matrix(0.7071 -0.7071 0.7071 0.7071 103.0253 249.6081)" style="fill:#8F9294;" width="3.167" height="3.167"/>
						
							<rect x="363.251" y="10.89" transform="matrix(0.7071 -0.7071 0.7071 0.7071 98.0821 261.5221)" style="fill:#8F9294;" width="2.95" height="2.95"/>
						
							<rect x="375.279" y="22.918" transform="matrix(0.7071 -0.7071 0.7071 0.7071 93.1512 273.4492)" style="fill:#8F9294;" width="2.734" height="2.734"/>
						
							<rect x="387.307" y="34.946" transform="matrix(0.7071 -0.7071 0.7071 0.7071 88.2074 285.3617)" style="fill:#8F9294;" width="2.518" height="2.518"/>
						
							<rect x="399.335" y="46.974" transform="matrix(0.7071 -0.7071 0.7071 0.7071 83.2701 297.2815)" style="fill:#8F9294;" width="2.301" height="2.301"/>
						
							<rect x="411.363" y="59.002" transform="matrix(0.7071 -0.7071 0.7071 0.7071 78.3327 309.2013)" style="fill:#8F9294;" width="2.085" height="2.085"/>
						
							<rect x="423.391" y="71.03" transform="matrix(0.7071 -0.7071 0.7071 0.7071 73.3954 321.1211)" style="fill:#8F9294;" width="1.869" height="1.869"/>
					</g>
				</g>
				<g>
					<g>
						
							<rect x="300.741" y="-70.935" transform="matrix(0.7071 -0.7071 0.7071 0.7071 137.3591 194.0006)" style="fill:#8F9294;" width="4.248" height="4.248"/>
						
							<rect x="312.769" y="-58.907" transform="matrix(0.7071 -0.7071 0.7071 0.7071 132.4218 205.9202)" style="fill:#8F9294;" width="4.032" height="4.032"/>
						
							<rect x="324.797" y="-46.879" transform="matrix(0.7071 -0.7071 0.7071 0.7071 127.4842 217.8395)" style="fill:#8F9294;" width="3.816" height="3.816"/>
						
							<rect x="336.825" y="-34.851" transform="matrix(0.7071 -0.7071 0.7071 0.7071 122.5466 229.7587)" style="fill:#8F9294;" width="3.599" height="3.599"/>
						
							<rect x="348.853" y="-22.823" transform="matrix(0.7071 -0.7071 0.7071 0.7071 117.6084 241.6775)" style="fill:#8F9294;" width="3.383" height="3.383"/>
						
							<rect x="360.881" y="-10.795" transform="matrix(0.7071 -0.7071 0.7071 0.7071 112.6735 253.5992)" style="fill:#8F9294;" width="3.167" height="3.167"/>
						
							<rect x="372.909" y="1.233" transform="matrix(0.7071 -0.7071 0.7071 0.7071 107.7391 265.5217)" style="fill:#8F9294;" width="2.95" height="2.95"/>
						
							<rect x="384.937" y="13.261" transform="matrix(0.7071 -0.7071 0.7071 0.7071 102.8023 277.4422)" style="fill:#8F9294;" width="2.734" height="2.734"/>
						
							<rect x="396.964" y="25.289" transform="matrix(0.7071 -0.7071 0.7071 0.7071 97.8642 289.3611)" style="fill:#8F9294;" width="2.518" height="2.518"/>
						
							<rect x="408.992" y="37.317" transform="matrix(0.7071 -0.7071 0.7071 0.7071 92.9276 301.2818)" style="fill:#8F9294;" width="2.301" height="2.301"/>
						
							<rect x="421.02" y="49.345" transform="matrix(0.7071 -0.7071 0.7071 0.7071 87.9903 313.2016)" style="fill:#8F9294;" width="2.085" height="2.085"/>
						
							<rect x="433.048" y="61.373" transform="matrix(0.7071 -0.7071 0.7071 0.7071 83.053 325.1214)" style="fill:#8F9294;" width="1.869" height="1.869"/>
					</g>
				</g>
				<g>
					<g>
						
							<rect x="310.398" y="-80.593" transform="matrix(0.7071 -0.7071 0.7071 0.7071 147.0167 198.0011)" style="fill:#8F9294;" width="4.248" height="4.248"/>
						
							<rect x="322.426" y="-68.565" transform="matrix(0.7071 -0.7071 0.7071 0.7071 142.084 209.9237)" style="fill:#8F9294;" width="4.032" height="4.032"/>
						
							<rect x="334.454" y="-56.537" transform="matrix(0.7071 -0.7071 0.7071 0.7071 137.1466 221.8435)" style="fill:#8F9294;" width="3.816" height="3.816"/>
						
							<rect x="346.482" y="-44.509" transform="matrix(0.7071 -0.7071 0.7071 0.7071 132.2093 233.7633)" style="fill:#8F9294;" width="3.599" height="3.599"/>
						
							<rect x="358.51" y="-32.481" transform="matrix(0.7071 -0.7071 0.7071 0.7071 127.2719 245.6831)" style="fill:#8F9294;" width="3.383" height="3.383"/>
						
							<rect x="370.538" y="-20.453" transform="matrix(0.7071 -0.7071 0.7071 0.7071 122.3346 257.6029)" style="fill:#8F9294;" width="3.167" height="3.167"/>
						
							<rect x="382.566" y="-8.425" transform="matrix(0.7071 -0.7071 0.7071 0.7071 117.396 269.5214)" style="fill:#8F9294;" width="2.95" height="2.95"/>
						
							<rect x="394.594" y="3.603" transform="matrix(0.7071 -0.7071 0.7071 0.7071 112.4549 281.4373)" style="fill:#8F9294;" width="2.734" height="2.734"/>
						
							<rect x="406.622" y="15.631" transform="matrix(0.7071 -0.7071 0.7071 0.7071 107.5226 293.3623)" style="fill:#8F9294;" width="2.518" height="2.518"/>
						
							<rect x="418.65" y="27.659" transform="matrix(0.7071 -0.7071 0.7071 0.7071 102.5852 305.2821)" style="fill:#8F9294;" width="2.301" height="2.301"/>
						
							<rect x="430.678" y="39.687" transform="matrix(0.7071 -0.7071 0.7071 0.7071 97.6479 317.2019)" style="fill:#8F9294;" width="2.085" height="2.085"/>
						
							<rect x="442.706" y="51.715" transform="matrix(0.7071 -0.7071 0.7071 0.7071 92.7106 329.1217)" style="fill:#8F9294;" width="1.869" height="1.869"/>
					</g>
				</g>
				<g>
					<g>
						
							<rect x="320.056" y="-90.25" transform="matrix(0.7071 -0.7071 0.7071 0.7071 156.6745 202.0016)" style="fill:#8F9294;" width="4.248" height="4.248"/>
						
							<rect x="332.084" y="-78.222" transform="matrix(0.7071 -0.7071 0.7071 0.7071 151.7416 213.9239)" style="fill:#8F9294;" width="4.032" height="4.032"/>
						
							<rect x="344.112" y="-66.194" transform="matrix(0.7071 -0.7071 0.7071 0.7071 146.7988 225.8401)" style="fill:#8F9294;" width="3.816" height="3.816"/>
						
							<rect x="356.14" y="-54.166" transform="matrix(0.7071 -0.7071 0.7071 0.7071 141.8669 237.7635)" style="fill:#8F9294;" width="3.599" height="3.599"/>
						
							<rect x="368.168" y="-42.138" transform="matrix(0.7071 -0.7071 0.7071 0.7071 136.9296 249.6834)" style="fill:#8F9294;" width="3.383" height="3.383"/>
						
							<rect x="380.196" y="-30.11" transform="matrix(0.7071 -0.7071 0.7071 0.7071 131.9916 261.6027)" style="fill:#8F9294;" width="3.167" height="3.167"/>
						
							<rect x="392.224" y="-18.082" transform="matrix(0.7071 -0.7071 0.7071 0.7071 127.0549 273.523)" style="fill:#8F9294;" width="2.95" height="2.95"/>
						
							<rect x="404.252" y="-6.055" transform="matrix(0.7071 -0.7071 0.7071 0.7071 122.1123 285.4377)" style="fill:#8F9294;" width="2.734" height="2.734"/>
						
							<rect x="416.28" y="5.973" transform="matrix(0.7071 -0.7071 0.7071 0.7071 117.1786 297.3609)" style="fill:#8F9294;" width="2.518" height="2.518"/>
						
							<rect x="428.308" y="18.001" transform="matrix(0.7071 -0.7071 0.7071 0.7071 112.2419 309.2813)" style="fill:#8F9294;" width="2.301" height="2.301"/>
						
							<rect x="440.336" y="30.029" transform="matrix(0.7071 -0.7071 0.7071 0.7071 107.3055 321.2022)" style="fill:#8F9294;" width="2.085" height="2.085"/>
						
							<rect x="452.363" y="42.057" transform="matrix(0.7071 -0.7071 0.7071 0.7071 102.3682 333.122)" style="fill:#8F9294;" width="1.869" height="1.869"/>
					</g>
				</g>
				<g>
					<g>
						
							<rect x="329.714" y="-99.908" transform="matrix(0.7071 -0.7071 0.7071 0.7071 166.3416 206.0072)" style="fill:#8F9294;" width="4.248" height="4.248"/>
						
							<rect x="341.742" y="-87.88" transform="matrix(0.7071 -0.7071 0.7071 0.7071 161.4045 217.9275)" style="fill:#8F9294;" width="4.032" height="4.032"/>
						
							<rect x="353.77" y="-75.852" transform="matrix(0.7071 -0.7071 0.7071 0.7071 156.4675 229.8478)" style="fill:#8F9294;" width="3.815" height="3.815"/>
						
							<rect x="365.797" y="-63.824" transform="matrix(0.7071 -0.7071 0.7071 0.7071 151.5299 241.7677)" style="fill:#8F9294;" width="3.599" height="3.599"/>
						
							<rect x="377.825" y="-51.796" transform="matrix(0.7071 -0.7071 0.7071 0.7071 146.5872 253.6837)" style="fill:#8F9294;" width="3.383" height="3.383"/>
						
							<rect x="389.853" y="-39.768" transform="matrix(0.7071 -0.7071 0.7071 0.7071 141.6566 265.609)" style="fill:#8F9294;" width="3.167" height="3.167"/>
						
							<rect x="401.881" y="-27.74" transform="matrix(0.7071 -0.7071 0.7071 0.7071 136.7125 277.5233)" style="fill:#8F9294;" width="2.95" height="2.95"/>
						
							<rect x="413.909" y="-15.712" transform="matrix(0.7071 -0.7071 0.7071 0.7071 131.7751 289.4431)" style="fill:#8F9294;" width="2.734" height="2.734"/>
						
							<rect x="425.937" y="-3.684" transform="matrix(0.7071 -0.7071 0.7071 0.7071 126.8386 301.3636)" style="fill:#8F9294;" width="2.518" height="2.518"/>
						
							<rect x="437.965" y="8.344" transform="matrix(0.7071 -0.7071 0.7071 0.7071 121.8995 313.2817)" style="fill:#8F9294;" width="2.301" height="2.301"/>
						
							<rect x="449.993" y="20.372" transform="matrix(0.7071 -0.7071 0.7071 0.7071 116.9631 325.2025)" style="fill:#8F9294;" width="2.085" height="2.085"/>
						
							<rect x="462.021" y="32.4" transform="matrix(0.7071 -0.7071 0.7071 0.7071 112.0143 337.109)" style="fill:#8F9294;" width="1.869" height="1.869"/>
					</g>
				</g>
				<g>
					<g>
						
							<rect x="339.371" y="-109.565" transform="matrix(0.7071 -0.7071 0.7071 0.7071 175.9994 210.0075)" style="fill:#8F9294;" width="4.248" height="4.248"/>
						
							<rect x="351.399" y="-97.537" transform="matrix(0.7071 -0.7071 0.7071 0.7071 171.0624 221.9278)" style="fill:#8F9294;" width="4.032" height="4.032"/>
						
							<rect x="363.427" y="-85.509" transform="matrix(0.7071 -0.7071 0.7071 0.7071 166.1253 233.8481)" style="fill:#8F9294;" width="3.815" height="3.815"/>
						
							<rect x="375.455" y="-73.482" transform="matrix(0.7071 -0.7071 0.7071 0.7071 161.1883 245.7684)" style="fill:#8F9294;" width="3.599" height="3.599"/>
						
							<rect x="387.483" y="-61.454" transform="matrix(0.7071 -0.7071 0.7071 0.7071 156.2514 257.6888)" style="fill:#8F9294;" width="3.383" height="3.383"/>
						
							<rect x="399.511" y="-49.426" transform="matrix(0.7071 -0.7071 0.7071 0.7071 151.3145 269.6093)" style="fill:#8F9294;" width="3.167" height="3.167"/>
						
							<rect x="411.539" y="-37.398" transform="matrix(0.7071 -0.7071 0.7071 0.7071 146.3777 281.53)" style="fill:#8F9294;" width="2.95" height="2.95"/>
						
							<rect x="423.567" y="-25.37" transform="matrix(0.7071 -0.7071 0.7071 0.7071 141.4409 293.4507)" style="fill:#8F9294;" width="2.734" height="2.734"/>
						
							<rect x="435.595" y="-13.342" transform="matrix(0.7071 -0.7071 0.7071 0.7071 136.5043 305.3716)" style="fill:#8F9294;" width="2.518" height="2.518"/>
						
							<rect x="447.623" y="-1.314" transform="matrix(0.7071 -0.7071 0.7071 0.7071 131.558 317.2829)" style="fill:#8F9294;" width="2.301" height="2.301"/>
						
							<rect x="459.651" y="10.714" transform="matrix(0.7071 -0.7071 0.7071 0.7071 126.6315 329.2141)" style="fill:#8F9294;" width="2.085" height="2.085"/>
						
							<rect x="471.679" y="22.742" transform="matrix(0.7071 -0.7071 0.7071 0.7071 121.6834 341.1226)" style="fill:#8F9294;" width="1.869" height="1.869"/>
					</g>
				</g>
				<g>
					<g>
						
							<rect x="349.029" y="-119.223" transform="matrix(0.7071 -0.7071 0.7071 0.7071 185.6628 214.0106)" style="fill:#8F9294;" width="4.248" height="4.248"/>
						
							<rect x="361.057" y="-107.195" transform="matrix(0.7071 -0.7071 0.7071 0.7071 180.7202 225.9281)" style="fill:#8F9294;" width="4.032" height="4.032"/>
						
							<rect x="373.085" y="-95.167" transform="matrix(0.7071 -0.7071 0.7071 0.7071 175.7832 237.8484)" style="fill:#8F9294;" width="3.815" height="3.815"/>
						
							<rect x="385.113" y="-83.139" transform="matrix(0.7071 -0.7071 0.7071 0.7071 170.8462 249.7687)" style="fill:#8F9294;" width="3.599" height="3.599"/>
						
							<rect x="397.141" y="-71.111" transform="matrix(0.7071 -0.7071 0.7071 0.7071 165.9017 261.6838)" style="fill:#8F9294;" width="3.383" height="3.383"/>
						
							<rect x="409.169" y="-59.083" transform="matrix(0.7071 -0.7071 0.7071 0.7071 160.9724 273.6097)" style="fill:#8F9294;" width="3.167" height="3.167"/>
						
							<rect x="421.197" y="-47.055" transform="matrix(0.7071 -0.7071 0.7071 0.7071 156.0277 285.5239)" style="fill:#8F9294;" width="2.95" height="2.95"/>
						
							<rect x="433.224" y="-35.027" transform="matrix(0.7071 -0.7071 0.7071 0.7071 151.0989 297.451)" style="fill:#8F9294;" width="2.734" height="2.734"/>
						
							<rect x="445.252" y="-22.999" transform="matrix(0.7071 -0.7071 0.7071 0.7071 146.1519 309.3626)" style="fill:#8F9294;" width="2.518" height="2.518"/>
						
							<rect x="457.28" y="-10.971" transform="matrix(0.7071 -0.7071 0.7071 0.7071 141.2258 321.2931)" style="fill:#8F9294;" width="2.301" height="2.301"/>
						
							<rect x="469.308" y="1.057" transform="matrix(0.7071 -0.7071 0.7071 0.7071 136.2839 333.2088)" style="fill:#8F9294;" width="2.085" height="2.085"/>
						
							<rect x="481.336" y="13.084" transform="matrix(0.7071 -0.7071 0.7071 0.7071 131.3535 345.1362)" style="fill:#8F9294;" width="1.869" height="1.869"/>
					</g>
				</g>
			</g>
			<g>
				<g>
					<g>
						
							<rect x="641.906" y="507.257" transform="matrix(0.7071 -0.7071 0.7071 0.7071 -171.5563 604.5788)" style="fill:#8F9294;" width="4.248" height="4.248"/>
						
							<rect x="630.095" y="495.445" transform="matrix(0.7071 -0.7071 0.7071 0.7071 -166.6173 592.6726)" style="fill:#8F9294;" width="4.032" height="4.032"/>
						
							<rect x="618.283" y="483.634" transform="matrix(0.7071 -0.7071 0.7071 0.7071 -161.68 580.7527)" style="fill:#8F9294;" width="3.816" height="3.816"/>
						
							<rect x="606.471" y="471.822" transform="matrix(0.7071 -0.7071 0.7071 0.7071 -156.7408 568.848)" style="fill:#8F9294;" width="3.599" height="3.599"/>
						
							<rect x="594.66" y="460.01" transform="matrix(0.7071 -0.7071 0.7071 0.7071 -151.8056 556.9108)" style="fill:#8F9294;" width="3.383" height="3.383"/>
						
							<rect x="582.848" y="448.199" transform="matrix(0.7071 -0.7071 0.7071 0.7071 -146.8658 545.0097)" style="fill:#8F9294;" width="3.167" height="3.167"/>
						
							<rect x="571.036" y="436.387" transform="matrix(0.7071 -0.7071 0.7071 0.7071 -141.9306 533.0735)" style="fill:#8F9294;" width="2.95" height="2.95"/>
						
							<rect x="559.225" y="424.575" transform="matrix(0.7071 -0.7071 0.7071 0.7071 -136.9908 521.1718)" style="fill:#8F9294;" width="2.734" height="2.734"/>
						
							<rect x="547.413" y="412.764" transform="matrix(0.7071 -0.7071 0.7071 0.7071 -132.0559 509.2339)" style="fill:#8F9294;" width="2.518" height="2.518"/>
						
							<rect x="535.601" y="400.952" transform="matrix(0.7071 -0.7071 0.7071 0.7071 -127.1161 497.3318)" style="fill:#8F9294;" width="2.301" height="2.301"/>
						
							<rect x="523.79" y="389.14" transform="matrix(0.7071 -0.7071 0.7071 0.7071 -122.1813 485.3943)" style="fill:#8F9294;" width="2.085" height="2.085"/>
						
							<rect x="511.978" y="377.329" transform="matrix(0.7071 -0.7071 0.7071 0.7071 -117.2403 473.4984)" style="fill:#8F9294;" width="1.869" height="1.869"/>
					</g>
				</g>
				<g>
					<g>
						
							<rect x="632.249" y="516.915" transform="matrix(0.7071 -0.7071 0.7071 0.7071 -181.2136 600.5785)" style="fill:#8F9294;" width="4.248" height="4.248"/>
						
							<rect x="620.437" y="505.103" transform="matrix(0.7071 -0.7071 0.7071 0.7071 -176.2749 588.6723)" style="fill:#8F9294;" width="4.032" height="4.032"/>
						
							<rect x="608.625" y="493.291" transform="matrix(0.7071 -0.7071 0.7071 0.7071 -171.3389 576.7402)" style="fill:#8F9294;" width="3.816" height="3.816"/>
						
							<rect x="596.814" y="481.48" transform="matrix(0.7071 -0.7071 0.7071 0.7071 -166.4002 564.8327)" style="fill:#8F9294;" width="3.599" height="3.599"/>
						
							<rect x="585.002" y="469.668" transform="matrix(0.7071 -0.7071 0.7071 0.7071 -161.4629 552.9128)" style="fill:#8F9294;" width="3.383" height="3.383"/>
						
							<rect x="573.19" y="457.856" transform="matrix(0.7071 -0.7071 0.7071 0.7071 -156.5256 540.993)" style="fill:#8F9294;" width="3.167" height="3.167"/>
						
							<rect x="561.379" y="446.045" transform="matrix(0.7071 -0.7071 0.7071 0.7071 -151.588 529.0757)" style="fill:#8F9294;" width="2.95" height="2.95"/>
						
							<rect x="549.567" y="434.233" transform="matrix(0.7071 -0.7071 0.7071 0.7071 -146.6512 517.1509)" style="fill:#8F9294;" width="2.734" height="2.734"/>
						
							<rect x="537.755" y="422.421" transform="matrix(0.7071 -0.7071 0.7071 0.7071 -141.7135 505.2336)" style="fill:#8F9294;" width="2.518" height="2.518"/>
						
							<rect x="525.944" y="410.61" transform="matrix(0.7071 -0.7071 0.7071 0.7071 -136.7762 493.3138)" style="fill:#8F9294;" width="2.301" height="2.301"/>
						
							<rect x="514.132" y="398.798" transform="matrix(0.7071 -0.7071 0.7071 0.7071 -131.8385 481.3969)" style="fill:#8F9294;" width="2.085" height="2.085"/>
						
							<rect x="502.32" y="386.986" transform="matrix(0.7071 -0.7071 0.7071 0.7071 -126.9046 469.4504)" style="fill:#8F9294;" width="1.869" height="1.869"/>
					</g>
				</g>
				<g>
					<g>
						
							<rect x="622.591" y="526.572" transform="matrix(0.7071 -0.7071 0.7071 0.7071 -190.871 596.5782)" style="fill:#8F9294;" width="4.248" height="4.248"/>
						
							<rect x="610.779" y="514.76" transform="matrix(0.7071 -0.7071 0.7071 0.7071 -185.9337 584.658)" style="fill:#8F9294;" width="4.032" height="4.032"/>
						
							<rect x="598.968" y="502.949" transform="matrix(0.7071 -0.7071 0.7071 0.7071 -180.9964 572.7377)" style="fill:#8F9294;" width="3.816" height="3.816"/>
						
							<rect x="587.156" y="491.137" transform="matrix(0.7071 -0.7071 0.7071 0.7071 -176.0592 560.8173)" style="fill:#8F9294;" width="3.599" height="3.599"/>
						
							<rect x="575.344" y="479.326" transform="matrix(0.7071 -0.7071 0.7071 0.7071 -171.1219 548.8969)" style="fill:#8F9294;" width="3.383" height="3.383"/>
						
							<rect x="563.533" y="467.514" transform="matrix(0.7071 -0.7071 0.7071 0.7071 -166.1846 536.9764)" style="fill:#8F9294;" width="3.167" height="3.167"/>
						
							<rect x="551.721" y="455.702" transform="matrix(0.7071 -0.7071 0.7071 0.7071 -161.2474 525.0558)" style="fill:#8F9294;" width="2.95" height="2.95"/>
						
							<rect x="539.909" y="443.891" transform="matrix(0.7071 -0.7071 0.7071 0.7071 -156.3102 513.1351)" style="fill:#8F9294;" width="2.734" height="2.734"/>
						
							<rect x="528.098" y="432.079" transform="matrix(0.7071 -0.7071 0.7071 0.7071 -151.3711 501.2333)" style="fill:#8F9294;" width="2.518" height="2.518"/>
						
							<rect x="516.286" y="420.267" transform="matrix(0.7071 -0.7071 0.7071 0.7071 -146.4359 489.2931)" style="fill:#8F9294;" width="2.301" height="2.301"/>
						
							<rect x="504.474" y="408.456" transform="matrix(0.7071 -0.7071 0.7071 0.7071 -141.4967 477.3909)" style="fill:#8F9294;" width="2.085" height="2.085"/>
						
							<rect x="492.663" y="396.644" transform="matrix(0.7071 -0.7071 0.7071 0.7071 -136.5617 465.4501)" style="fill:#8F9294;" width="1.869" height="1.869"/>
					</g>
				</g>
				<g>
					<g>
						
							<rect x="612.933" y="536.23" transform="matrix(0.7071 -0.7071 0.7071 0.7071 -200.5266 592.605)" style="fill:#8F9294;" width="4.248" height="4.248"/>
						
							<rect x="601.122" y="524.418" transform="matrix(0.7071 -0.7071 0.7071 0.7071 -195.5892 580.6857)" style="fill:#8F9294;" width="4.032" height="4.032"/>
						
							<rect x="589.31" y="512.606" transform="matrix(0.7071 -0.7071 0.7071 0.7071 -190.6528 568.7518)" style="fill:#8F9294;" width="3.816" height="3.816"/>
						
							<rect x="577.498" y="500.795" transform="matrix(0.7071 -0.7071 0.7071 0.7071 -185.7146 556.8448)" style="fill:#8F9294;" width="3.599" height="3.599"/>
						
							<rect x="565.687" y="488.983" transform="matrix(0.7071 -0.7071 0.7071 0.7071 -180.7781 544.9122)" style="fill:#8F9294;" width="3.383" height="3.383"/>
						
							<rect x="553.875" y="477.172" transform="matrix(0.7071 -0.7071 0.7071 0.7071 -175.8396 533.0088)" style="fill:#8F9294;" width="3.167" height="3.167"/>
						
							<rect x="542.063" y="465.36" transform="matrix(0.7071 -0.7071 0.7071 0.7071 -170.9034 521.0726)" style="fill:#8F9294;" width="2.95" height="2.95"/>
						
							<rect x="530.252" y="453.548" transform="matrix(0.7071 -0.7071 0.7071 0.7071 -165.9647 509.1709)" style="fill:#8F9294;" width="2.734" height="2.734"/>
						
							<rect x="518.44" y="441.737" transform="matrix(0.7071 -0.7071 0.7071 0.7071 -161.0289 497.2305)" style="fill:#8F9294;" width="2.518" height="2.518"/>
						
							<rect x="506.628" y="429.925" transform="matrix(0.7071 -0.7071 0.7071 0.7071 -156.0914 485.3132)" style="fill:#8F9294;" width="2.301" height="2.301"/>
						
							<rect x="494.817" y="418.113" transform="matrix(0.7071 -0.7071 0.7071 0.7071 -151.1541 473.3934)" style="fill:#8F9294;" width="2.085" height="2.085"/>
						
							<rect x="483.005" y="406.302" transform="matrix(0.7071 -0.7071 0.7071 0.7071 -146.2185 461.4527)" style="fill:#8F9294;" width="1.869" height="1.869"/>
					</g>
				</g>
				<g>
					<g>
						
							<rect x="603.276" y="545.887" transform="matrix(0.7071 -0.7071 0.7071 0.7071 -210.1844 588.6047)" style="fill:#8F9294;" width="4.248" height="4.248"/>
						
							<rect x="591.464" y="534.076" transform="matrix(0.7071 -0.7071 0.7071 0.7071 -205.247 576.6854)" style="fill:#8F9294;" width="4.032" height="4.032"/>
						
							<rect x="579.652" y="522.264" transform="matrix(0.7071 -0.7071 0.7071 0.7071 -200.3104 564.7515)" style="fill:#8F9294;" width="3.816" height="3.816"/>
						
							<rect x="567.841" y="510.452" transform="matrix(0.7071 -0.7071 0.7071 0.7071 -195.3723 552.8467)" style="fill:#8F9294;" width="3.599" height="3.599"/>
						
							<rect x="556.029" y="498.641" transform="matrix(0.7071 -0.7071 0.7071 0.7071 -190.4357 540.9119)" style="fill:#8F9294;" width="3.383" height="3.383"/>
						
							<rect x="544.218" y="486.829" transform="matrix(0.7071 -0.7071 0.7071 0.7071 -185.4973 529.0107)" style="fill:#8F9294;" width="3.167" height="3.167"/>
						
							<rect x="532.406" y="475.017" transform="matrix(0.7071 -0.7071 0.7071 0.7071 -180.5612 517.07)" style="fill:#8F9294;" width="2.95" height="2.95"/>
						
							<rect x="520.594" y="463.206" transform="matrix(0.7071 -0.7071 0.7071 0.7071 -175.6226 505.1706)" style="fill:#8F9294;" width="2.734" height="2.734"/>
						
							<rect x="508.783" y="451.394" transform="matrix(0.7071 -0.7071 0.7071 0.7071 -170.6863 493.2327)" style="fill:#8F9294;" width="2.518" height="2.518"/>
						
							<rect x="496.971" y="439.583" transform="matrix(0.7071 -0.7071 0.7071 0.7071 -165.7476 481.3359)" style="fill:#8F9294;" width="2.301" height="2.301"/>
						
							<rect x="485.159" y="427.771" transform="matrix(0.7071 -0.7071 0.7071 0.7071 -160.8117 469.3931)" style="fill:#8F9294;" width="2.085" height="2.085"/>
						
							<rect x="473.348" y="415.959" transform="matrix(0.7071 -0.7071 0.7071 0.7071 -155.873 457.4943)" style="fill:#8F9294;" width="1.869" height="1.869"/>
					</g>
				</g>
				<g>
					<g>
						
							<rect x="593.618" y="555.545" transform="matrix(0.7071 -0.7071 0.7071 0.7071 -219.8427 584.5909)" style="fill:#8F9294;" width="4.248" height="4.248"/>
						
							<rect x="581.807" y="543.733" transform="matrix(0.7071 -0.7071 0.7071 0.7071 -214.9053 572.6711)" style="fill:#8F9294;" width="4.032" height="4.032"/>
						
							<rect x="569.995" y="531.922" transform="matrix(0.7071 -0.7071 0.7071 0.7071 -209.9675 560.7657)" style="fill:#8F9294;" width="3.816" height="3.816"/>
						
							<rect x="558.183" y="520.11" transform="matrix(0.7071 -0.7071 0.7071 0.7071 -205.0301 548.8464)" style="fill:#8F9294;" width="3.599" height="3.599"/>
						
							<rect x="546.372" y="508.298" transform="matrix(0.7071 -0.7071 0.7071 0.7071 -200.0928 536.9251)" style="fill:#8F9294;" width="3.383" height="3.383"/>
						
							<rect x="534.56" y="496.487" transform="matrix(0.7071 -0.7071 0.7071 0.7071 -195.1554 525.0081)" style="fill:#8F9294;" width="3.167" height="3.167"/>
						
							<rect x="522.748" y="484.675" transform="matrix(0.7071 -0.7071 0.7071 0.7071 -190.2186 513.072)" style="fill:#8F9294;" width="2.95" height="2.95"/>
						
							<rect x="510.937" y="472.863" transform="matrix(0.7071 -0.7071 0.7071 0.7071 -185.2806 501.1703)" style="fill:#8F9294;" width="2.734" height="2.734"/>
						
							<rect x="499.125" y="461.052" transform="matrix(0.7071 -0.7071 0.7071 0.7071 -180.3439 489.2324)" style="fill:#8F9294;" width="2.518" height="2.518"/>
						
							<rect x="487.313" y="449.24" transform="matrix(0.7071 -0.7071 0.7071 0.7071 -175.4059 477.3305)" style="fill:#8F9294;" width="2.301" height="2.301"/>
						
							<rect x="475.502" y="437.428" transform="matrix(0.7071 -0.7071 0.7071 0.7071 -170.4693 465.3928)" style="fill:#8F9294;" width="2.085" height="2.085"/>
						
							<rect x="463.69" y="425.617" transform="matrix(0.7071 -0.7071 0.7071 0.7071 -165.5309 453.4969)" style="fill:#8F9294;" width="1.869" height="1.869"/>
					</g>
				</g>
				<g>
					<g>
						
							<rect x="583.961" y="565.203" transform="matrix(0.7071 -0.7071 0.7071 0.7071 -229.5005 580.577)" style="fill:#8F9294;" width="4.248" height="4.248"/>
						
							<rect x="572.149" y="553.391" transform="matrix(0.7071 -0.7071 0.7071 0.7071 -224.5629 568.6707)" style="fill:#8F9294;" width="4.032" height="4.032"/>
						
							<rect x="560.337" y="541.579" transform="matrix(0.7071 -0.7071 0.7071 0.7071 -219.6258 556.7385)" style="fill:#8F9294;" width="3.816" height="3.816"/>
						
							<rect x="548.526" y="529.768" transform="matrix(0.7071 -0.7071 0.7071 0.7071 -214.6882 544.8311)" style="fill:#8F9294;" width="3.599" height="3.599"/>
						
							<rect x="536.714" y="517.956" transform="matrix(0.7071 -0.7071 0.7071 0.7071 -209.7512 532.8957)" style="fill:#8F9294;" width="3.383" height="3.383"/>
						
							<rect x="524.902" y="506.144" transform="matrix(0.7071 -0.7071 0.7071 0.7071 -204.8133 521.0078)" style="fill:#8F9294;" width="3.167" height="3.167"/>
						
							<rect x="513.091" y="494.333" transform="matrix(0.7071 -0.7071 0.7071 0.7071 -199.8762 509.0739)" style="fill:#8F9294;" width="2.95" height="2.95"/>
						
							<rect x="501.279" y="482.521" transform="matrix(0.7071 -0.7071 0.7071 0.7071 -194.9386 497.1677)" style="fill:#8F9294;" width="2.734" height="2.734"/>
						
							<rect x="489.467" y="470.709" transform="matrix(0.7071 -0.7071 0.7071 0.7071 -190.0015 485.2321)" style="fill:#8F9294;" width="2.518" height="2.518"/>
						
							<rect x="477.656" y="458.898" transform="matrix(0.7071 -0.7071 0.7071 0.7071 -185.0638 473.3327)" style="fill:#8F9294;" width="2.301" height="2.301"/>
						
							<rect x="465.844" y="447.086" transform="matrix(0.7071 -0.7071 0.7071 0.7071 -180.1268 461.3951)" style="fill:#8F9294;" width="2.085" height="2.085"/>
						
							<rect x="454.032" y="435.274" transform="matrix(0.7071 -0.7071 0.7071 0.7071 -175.189 449.4966)" style="fill:#8F9294;" width="1.869" height="1.869"/>
					</g>
				</g>
				<g>
					<g>
						
							<rect x="574.303" y="574.86" transform="matrix(0.7071 -0.7071 0.7071 0.7071 -239.1579 576.5767)" style="fill:#8F9294;" width="4.248" height="4.248"/>
						
							<rect x="562.491" y="563.048" transform="matrix(0.7071 -0.7071 0.7071 0.7071 -234.2205 564.6704)" style="fill:#8F9294;" width="4.032" height="4.032"/>
						
							<rect x="550.68" y="551.237" transform="matrix(0.7071 -0.7071 0.7071 0.7071 -229.2832 552.7361)" style="fill:#8F9294;" width="3.816" height="3.816"/>
						
							<rect x="538.868" y="539.425" transform="matrix(0.7071 -0.7071 0.7071 0.7071 -224.3458 540.8308)" style="fill:#8F9294;" width="3.599" height="3.599"/>
						
							<rect x="527.056" y="527.614" transform="matrix(0.7071 -0.7071 0.7071 0.7071 -219.4085 528.8954)" style="fill:#8F9294;" width="3.383" height="3.383"/>
						
							<rect x="515.245" y="515.802" transform="matrix(0.7071 -0.7071 0.7071 0.7071 -214.4711 516.9912)" style="fill:#8F9294;" width="3.167" height="3.167"/>
						
							<rect x="503.433" y="503.99" transform="matrix(0.7071 -0.7071 0.7071 0.7071 -209.5338 505.0543)" style="fill:#8F9294;" width="2.95" height="2.95"/>
						
							<rect x="491.621" y="492.179" transform="matrix(0.7071 -0.7071 0.7071 0.7071 -204.5965 493.1516)" style="fill:#8F9294;" width="2.734" height="2.734"/>
						
							<rect x="479.81" y="480.367" transform="matrix(0.7071 -0.7071 0.7071 0.7071 -199.6591 481.2318)" style="fill:#8F9294;" width="2.518" height="2.518"/>
						
							<rect x="467.998" y="468.555" transform="matrix(0.7071 -0.7071 0.7071 0.7071 -194.7218 469.312)" style="fill:#8F9294;" width="2.301" height="2.301"/>
						
							<rect x="456.186" y="456.744" transform="matrix(0.7071 -0.7071 0.7071 0.7071 -189.7845 457.3896)" style="fill:#8F9294;" width="2.085" height="2.085"/>
						
							<rect x="444.375" y="444.932" transform="matrix(0.7071 -0.7071 0.7071 0.7071 -184.8471 445.4485)" style="fill:#8F9294;" width="1.869" height="1.869"/>
					</g>
				</g>
				<g>
					<g>
						
							<rect x="564.645" y="584.518" transform="matrix(0.7071 -0.7071 0.7071 0.7071 -248.8152 572.5764)" style="fill:#8F9294;" width="4.248" height="4.248"/>
						
							<rect x="552.834" y="572.706" transform="matrix(0.7071 -0.7071 0.7071 0.7071 -243.8779 560.6561)" style="fill:#8F9294;" width="4.032" height="4.032"/>
						
							<rect x="541.022" y="560.894" transform="matrix(0.7071 -0.7071 0.7071 0.7071 -238.9405 548.7358)" style="fill:#8F9294;" width="3.816" height="3.816"/>
						
							<rect x="529.21" y="549.083" transform="matrix(0.7071 -0.7071 0.7071 0.7071 -234.0031 536.8155)" style="fill:#8F9294;" width="3.599" height="3.599"/>
						
							<rect x="517.399" y="537.271" transform="matrix(0.7071 -0.7071 0.7071 0.7071 -229.0658 524.8951)" style="fill:#8F9294;" width="3.383" height="3.383"/>
						
							<rect x="505.587" y="525.459" transform="matrix(0.7071 -0.7071 0.7071 0.7071 -224.1284 512.9746)" style="fill:#8F9294;" width="3.167" height="3.167"/>
						
							<rect x="493.776" y="513.648" transform="matrix(0.7071 -0.7071 0.7071 0.7071 -219.1911 501.054)" style="fill:#8F9294;" width="2.95" height="2.95"/>
						
							<rect x="481.964" y="501.836" transform="matrix(0.7071 -0.7071 0.7071 0.7071 -214.2537 489.1333)" style="fill:#8F9294;" width="2.734" height="2.734"/>
						
							<rect x="470.152" y="490.025" transform="matrix(0.7071 -0.7071 0.7071 0.7071 -209.3163 477.2124)" style="fill:#8F9294;" width="2.518" height="2.518"/>
						
							<rect x="458.341" y="478.213" transform="matrix(0.7071 -0.7071 0.7071 0.7071 -204.379 465.2913)" style="fill:#8F9294;" width="2.301" height="2.301"/>
						
							<rect x="446.529" y="466.401" transform="matrix(0.7071 -0.7071 0.7071 0.7071 -199.4416 453.37)" style="fill:#8F9294;" width="2.085" height="2.085"/>
						
							<rect x="434.717" y="454.59" transform="matrix(0.7071 -0.7071 0.7071 0.7071 -194.5042 441.4509)" style="fill:#8F9294;" width="1.869" height="1.869"/>
					</g>
				</g>
				<g>
					<g>
						
							<rect x="554.988" y="594.175" transform="matrix(0.7071 -0.7071 0.7071 0.7071 -258.474 568.6168)" style="fill:#8F9294;" width="4.248" height="4.248"/>
						
							<rect x="543.176" y="582.364" transform="matrix(0.7071 -0.7071 0.7071 0.7071 -253.5362 556.6838)" style="fill:#8F9294;" width="4.032" height="4.032"/>
						
							<rect x="531.364" y="570.552" transform="matrix(0.7071 -0.7071 0.7071 0.7071 -248.5989 544.7645)" style="fill:#8F9294;" width="3.816" height="3.816"/>
						
							<rect x="519.553" y="558.74" transform="matrix(0.7071 -0.7071 0.7071 0.7071 -243.6616 532.8452)" style="fill:#8F9294;" width="3.599" height="3.599"/>
						
							<rect x="507.741" y="546.929" transform="matrix(0.7071 -0.7071 0.7071 0.7071 -238.7237 520.9104)" style="fill:#8F9294;" width="3.383" height="3.383"/>
						
							<rect x="495.93" y="535.117" transform="matrix(0.7071 -0.7071 0.7071 0.7071 -233.7871 509.009)" style="fill:#8F9294;" width="3.167" height="3.167"/>
						
							<rect x="484.118" y="523.305" transform="matrix(0.7071 -0.7071 0.7071 0.7071 -228.8489 497.0687)" style="fill:#8F9294;" width="2.95" height="2.95"/>
						
							<rect x="472.306" y="511.494" transform="matrix(0.7071 -0.7071 0.7071 0.7071 -223.9124 485.169)" style="fill:#8F9294;" width="2.734" height="2.734"/>
						
							<rect x="460.495" y="499.682" transform="matrix(0.7071 -0.7071 0.7071 0.7071 -218.9743 473.2312)" style="fill:#8F9294;" width="2.518" height="2.518"/>
						
							<rect x="448.683" y="487.87" transform="matrix(0.7071 -0.7071 0.7071 0.7071 -214.0371 461.3137)" style="fill:#8F9294;" width="2.301" height="2.301"/>
						
							<rect x="436.871" y="476.059" transform="matrix(0.7071 -0.7071 0.7071 0.7071 -209.0997 449.3916)" style="fill:#8F9294;" width="2.085" height="2.085"/>
						
							<rect x="425.06" y="464.247" transform="matrix(0.7071 -0.7071 0.7071 0.7071 -204.1622 437.4692)" style="fill:#8F9294;" width="1.869" height="1.869"/>
					</g>
				</g>
				<g>
					<g>
						
							<rect x="545.33" y="603.833" transform="matrix(0.7071 -0.7071 0.7071 0.7071 -268.1306 564.5893)" style="fill:#8F9294;" width="4.248" height="4.248"/>
						
							<rect x="533.519" y="592.021" transform="matrix(0.7071 -0.7071 0.7071 0.7071 -263.1933 552.6696)" style="fill:#8F9294;" width="4.032" height="4.032"/>
						
							<rect x="521.707" y="580.21" transform="matrix(0.7071 -0.7071 0.7071 0.7071 -258.256 540.7497)" style="fill:#8F9294;" width="3.816" height="3.816"/>
						
							<rect x="509.895" y="568.398" transform="matrix(0.7071 -0.7071 0.7071 0.7071 -253.3195 528.8449)" style="fill:#8F9294;" width="3.599" height="3.599"/>
						
							<rect x="498.084" y="556.586" transform="matrix(0.7071 -0.7071 0.7071 0.7071 -248.382 516.9238)" style="fill:#8F9294;" width="3.383" height="3.383"/>
						
							<rect x="486.272" y="544.775" transform="matrix(0.7071 -0.7071 0.7071 0.7071 -243.4449 505.0066)" style="fill:#8F9294;" width="3.167" height="3.167"/>
						
							<rect x="474.46" y="532.963" transform="matrix(0.7071 -0.7071 0.7071 0.7071 -238.5066 493.0705)" style="fill:#8F9294;" width="2.95" height="2.95"/>
						
							<rect x="462.649" y="521.151" transform="matrix(0.7071 -0.7071 0.7071 0.7071 -233.5704 481.1687)" style="fill:#8F9294;" width="2.734" height="2.734"/>
						
							<rect x="450.837" y="509.34" transform="matrix(0.7071 -0.7071 0.7071 0.7071 -228.6319 469.2309)" style="fill:#8F9294;" width="2.518" height="2.518"/>
						
							<rect x="439.025" y="497.528" transform="matrix(0.7071 -0.7071 0.7071 0.7071 -223.6957 457.3292)" style="fill:#8F9294;" width="2.301" height="2.301"/>
						
							<rect x="427.214" y="485.716" transform="matrix(0.7071 -0.7071 0.7071 0.7071 -218.7572 445.3913)" style="fill:#8F9294;" width="2.085" height="2.085"/>
						
							<rect x="415.402" y="473.905" transform="matrix(0.7071 -0.7071 0.7071 0.7071 -213.8215 433.4953)" style="fill:#8F9294;" width="1.869" height="1.869"/>
					</g>
				</g>
				<g>
					<g>
						
							<rect x="535.673" y="613.491" transform="matrix(0.7071 -0.7071 0.7071 0.7071 -277.7883 560.589)" style="fill:#8F9294;" width="4.248" height="4.248"/>
						
							<rect x="523.861" y="601.679" transform="matrix(0.7071 -0.7071 0.7071 0.7071 -272.8509 548.6692)" style="fill:#8F9294;" width="4.032" height="4.032"/>
						
							<rect x="512.049" y="589.867" transform="matrix(0.7071 -0.7071 0.7071 0.7071 -267.9136 536.7494)" style="fill:#8F9294;" width="3.816" height="3.816"/>
						
							<rect x="500.238" y="578.056" transform="matrix(0.7071 -0.7071 0.7071 0.7071 -262.9762 524.8296)" style="fill:#8F9294;" width="3.599" height="3.599"/>
						
							<rect x="488.426" y="566.244" transform="matrix(0.7071 -0.7071 0.7071 0.7071 -258.0389 512.9098)" style="fill:#8F9294;" width="3.383" height="3.383"/>
						
							<rect x="476.614" y="554.432" transform="matrix(0.7071 -0.7071 0.7071 0.7071 -253.1015 500.99)" style="fill:#8F9294;" width="3.167" height="3.167"/>
						
							<rect x="464.803" y="542.621" transform="matrix(0.7071 -0.7071 0.7071 0.7071 -248.1655 489.0873)" style="fill:#8F9294;" width="2.95" height="2.95"/>
						
							<rect x="452.991" y="530.809" transform="matrix(0.7071 -0.7071 0.7071 0.7071 -243.2281 477.1664)" style="fill:#8F9294;" width="2.734" height="2.734"/>
						
							<rect x="441.179" y="518.997" transform="matrix(0.7071 -0.7071 0.7071 0.7071 -238.2911 465.2497)" style="fill:#8F9294;" width="2.518" height="2.518"/>
						
							<rect x="429.368" y="507.186" transform="matrix(0.7071 -0.7071 0.7071 0.7071 -233.3539 453.3312)" style="fill:#8F9294;" width="2.301" height="2.301"/>
						
							<rect x="417.556" y="495.374" transform="matrix(0.7071 -0.7071 0.7071 0.7071 -228.4151 441.3933)" style="fill:#8F9294;" width="2.085" height="2.085"/>
						
							<rect x="405.744" y="483.562" transform="matrix(0.7071 -0.7071 0.7071 0.7071 -223.4796 429.495)" style="fill:#8F9294;" width="1.869" height="1.869"/>
					</g>
				</g>
			</g>
			<path style="fill:#FDFDFD;" d="M750.498,275.471c-14.279,0-25.855,11.576-25.855,25.855c0,14.279,11.576,25.854,25.855,25.854
				c14.279,0,25.855-11.576,25.855-25.854C776.353,287.046,764.777,275.471,750.498,275.471z M750.498,313.415
				c-6.677,0-12.09-5.413-12.09-12.09c0-6.677,5.413-12.09,12.09-12.09c6.677,0,12.09,5.413,12.09,12.09
				C762.588,308.002,757.175,313.415,750.498,313.415z"/>
			<g>
				<defs>
					<circle id="SVGID_00000018949714206103670380000014382619664360804998_" cx="524.832" cy="194.127" r="55.098"/>
				</defs>
				<clipPath id="SVGID_00000005951125268419979500000010744608147798890929_">
					<use xlink:href="#SVGID_00000018949714206103670380000014382619664360804998_"  style="overflow:visible;"/>
				</clipPath>
				
					<path style="clip-path:url(#SVGID_00000005951125268419979500000010744608147798890929_);fill:none;stroke:#606060;stroke-width:0.6545;stroke-miterlimit:10;" d="
					M510.655,136.445c-15.239,16.176-31.602,31.231-46.845,47.471"/>
				
					<path style="clip-path:url(#SVGID_00000005951125268419979500000010744608147798890929_);fill:none;stroke:#606060;stroke-width:0.6545;stroke-miterlimit:10;" d="
					M517.626,136.393c-16.974,18.192-35.955,35.864-53.854,53.829"/>
				
					<path style="clip-path:url(#SVGID_00000005951125268419979500000010744608147798890929_);fill:none;stroke:#606060;stroke-width:0.6545;stroke-miterlimit:10;" d="
					M524.074,136.404c-20.149,20.145-40.44,40.436-60.429,60.44"/>
				
					<path style="clip-path:url(#SVGID_00000005951125268419979500000010744608147798890929_);fill:none;stroke:#606060;stroke-width:0.6545;stroke-miterlimit:10;" d="
					M530.464,136.55c-21.957,21.962-44.212,44.216-66.769,66.757"/>
				
					<path style="clip-path:url(#SVGID_00000005951125268419979500000010744608147798890929_);fill:none;stroke:#606060;stroke-width:0.6545;stroke-miterlimit:10;" d="
					M538.297,136.489c-24.553,23.987-49.426,48.205-74.528,73.14"/>
				
					<path style="clip-path:url(#SVGID_00000005951125268419979500000010744608147798890929_);fill:none;stroke:#606060;stroke-width:0.6545;stroke-miterlimit:10;" d="
					M543.43,136.579c-25.76,26.514-51.287,51.387-77.469,78.224c-0.655,0.655-1.964,0.655-2.31,1.553"/>
				
					<path style="clip-path:url(#SVGID_00000005951125268419979500000010744608147798890929_);fill:none;stroke:#606060;stroke-width:0.6545;stroke-miterlimit:10;" d="
					M550.546,136.461c-15.857,16.815-32.875,31.869-49.894,48.888c-12.436,13.091-24.873,24.218-36.79,37.285"/>
				
					<path style="clip-path:url(#SVGID_00000005951125268419979500000010744608147798890929_);fill:none;stroke:#606060;stroke-width:0.6545;stroke-miterlimit:10;" d="
					M554.963,137.765c-30.092,30.565-61.51,60.02-91.193,91.407"/>
				
					<path style="clip-path:url(#SVGID_00000005951125268419979500000010744608147798890929_);fill:none;stroke:#606060;stroke-width:0.6545;stroke-miterlimit:10;" d="
					M554.901,144.249c-30.03,29.972-60.794,60.736-91.02,91.135"/>
				
					<path style="clip-path:url(#SVGID_00000005951125268419979500000010744608147798890929_);fill:none;stroke:#606060;stroke-width:0.6545;stroke-miterlimit:10;" d="
					M558.198,147.767c-31.364,31.69-63.436,62.454-94.3,94.201"/>
				
					<path style="clip-path:url(#SVGID_00000005951125268419979500000010744608147798890929_);fill:none;stroke:#606060;stroke-width:0.6545;stroke-miterlimit:10;" d="
					M564.719,147.736c-33.957,33.685-66.684,68.376-101.102,101.011"/>
				
					<path style="clip-path:url(#SVGID_00000005951125268419979500000010744608147798890929_);fill:none;stroke:#606060;stroke-width:0.6545;stroke-miterlimit:10;" d="
					M570.758,147.97c-34.76,34.76-68.797,68.797-103.553,103.553"/>
				
					<path style="clip-path:url(#SVGID_00000005951125268419979500000010744608147798890929_);fill:none;stroke:#606060;stroke-width:0.6545;stroke-miterlimit:10;" d="
					M577.117,147.974c-34.574,34.102-68.61,68.793-103.503,103.608"/>
				
					<path style="clip-path:url(#SVGID_00000005951125268419979500000010744608147798890929_);fill:none;stroke:#606060;stroke-width:0.6545;stroke-miterlimit:10;" d="
					M580.54,150.913c-33.415,33.126-66.142,67.163-100.483,100.695"/>
				
					<path style="clip-path:url(#SVGID_00000005951125268419979500000010744608147798890929_);fill:none;stroke:#606060;stroke-width:0.6545;stroke-miterlimit:10;" d="
					M580.738,157.09c-31.649,31.531-61.758,64.259-94.209,94.515"/>
				
					<path style="clip-path:url(#SVGID_00000005951125268419979500000010744608147798890929_);fill:none;stroke:#606060;stroke-width:0.6545;stroke-miterlimit:10;" d="
					M580.498,164.17c-29.445,29.033-58.245,58.488-87.469,87.404"/>
				
					<path style="clip-path:url(#SVGID_00000005951125268419979500000010744608147798890929_);fill:none;stroke:#606060;stroke-width:0.6545;stroke-miterlimit:10;" d="
					M580.688,170.165c-27.017,26.966-53.854,54.457-81.135,81.353"/>
				
					<path style="clip-path:url(#SVGID_00000005951125268419979500000010744608147798890929_);fill:none;stroke:#606060;stroke-width:0.6545;stroke-miterlimit:10;" d="
					M580.616,176.763c-24.982,24.949-49.855,49.822-74.674,74.834"/>
				
					<path style="clip-path:url(#SVGID_00000005951125268419979500000010744608147798890929_);fill:none;stroke:#606060;stroke-width:0.6545;stroke-miterlimit:10;" d="
					M580.692,183.234c-22.439,23.06-45.349,45.969-68.184,68.266"/>
				
					<path style="clip-path:url(#SVGID_00000005951125268419979500000010744608147798890929_);fill:none;stroke:#606060;stroke-width:0.6545;stroke-miterlimit:10;" d="
					M580.611,189.833c-20.394,20.388-41.34,41.334-61.679,61.712"/>
				
					<path style="clip-path:url(#SVGID_00000005951125268419979500000010744608147798890929_);fill:none;stroke:#606060;stroke-width:0.6545;stroke-miterlimit:10;" d="
					M580.439,196.537c-18.259,18.266-36.587,36.593-55.07,55.039"/>
				
					<path style="clip-path:url(#SVGID_00000005951125268419979500000010744608147798890929_);fill:none;stroke:#606060;stroke-width:0.6545;stroke-miterlimit:10;" d="
					M580.639,202.602c-12.705,12.651-25.393,25.319-38.013,38.054c-3.609,3.641-7.212,7.287-10.808,10.94"/>
				
					<path style="clip-path:url(#SVGID_00000005951125268419979500000010744608147798890929_);fill:none;stroke:#606060;stroke-width:0.6545;stroke-miterlimit:10;" d="
					M580.592,209.851c-13.83,14.116-28.23,28.516-42.317,41.755"/>
			</g>
			<circle style="fill:none;stroke:#606060;stroke-width:0.6545;stroke-miterlimit:10;" cx="589.794" cy="236.268" r="5.363"/>
			<path style="fill:none;stroke:#8F9294;stroke-miterlimit:10;" d="M134.977,385.883c0,2.962-2.401,5.363-5.363,5.363
				c-2.962,0-5.363-2.401-5.363-5.363c0-2.962,2.401-5.363,5.363-5.363C132.576,380.52,134.977,382.921,134.977,385.883z"/>
		</g>
	</g>
</g>
</svg>
