<svg xmlns="http://www.w3.org/2000/svg" version="1.1" xmlns:xlink="http://www.w3.org/1999/xlink" xmlns:svgjs="http://svgjs.dev/svgjs" width="128" height="128" viewBox="0 0 128 128"><g transform="matrix(0.8046875,0,0,0.8046875,12.698359008710547,5.555233470394732)"><svg viewBox="0 0 83 95" data-background-color="#ffffff" preserveAspectRatio="xMidYMid meet" height="146" width="128" xmlns="http://www.w3.org/2000/svg" xmlns:xlink="http://www.w3.org/1999/xlink"><g id="tight-bounds" transform="matrix(1,0,0,1,-0.15984269633956671,-0.24049999999999727)"><svg viewBox="0 0 83.3196853926791 95.48100000000001" height="95.48100000000001" width="83.3196853926791"><g><svg viewBox="0 0 83.3196853926791 95.48100000000001" height="95.48100000000001" width="83.3196853926791"><g><svg viewBox="0 0 83.3196853926791 95.48100000000001" height="95.48100000000001" width="83.3196853926791"><g id="textblocktransform"><svg viewBox="0 0 83.3196853926791 95.48100000000001" height="95.48100000000001" width="83.3196853926791" id="textblock"><g><svg viewBox="0 0 83.3196853926791 95.48100000000001" height="95.48100000000001" width="83.3196853926791"><g><svg viewBox="0 0 83.3196853926791 95.48100000000001" height="95.48100000000001" width="83.3196853926791"><g><svg xmlns="http://www.w3.org/2000/svg" xmlns:xlink="http://www.w3.org/1999/xlink" version="1.1" x="0" y="0" viewBox="10.636858977723561 5 78.36314102227644 89.801" enable-background="new 0 0 100 100" xml:space="preserve" height="95.48100000000001" width="83.3196853926791" class="icon-icon-0" data-fill-palette-color="accent" id="icon-0"><circle cx="34.131" cy="14.3" r="8.7" fill="#8abe53" data-fill-palette-color="accent"></circle><polygon points="52,5 52,28.47 54.331,31.346 56,29.29 56,10 85,10 85,48 52,48 52,52 89,52 89,5 " fill="#8abe53" data-fill-palette-color="accent"></polygon><path d="M67.926 27.687c-1.193-1.193-3.127-1.193-4.32 0l-9.078 9.145c0 0-9.7-10.831-12.187-10.831H25.383c0 0-3.374-0.127-4.423 1.267l-9.683 12.828c-0.849 1.129-0.854 2.661-0.012 3.795l8.848 12.386C20.672 57.027 21 57.451 22 57.535v33.284c0 2.199 1.801 3.982 4 3.982s4-1.783 4-3.982V62h7v28.819c0 2.199 1.801 3.982 4 3.982 2.199 0 4-1.783 4-3.982V36.294l7.159 6.95c0.597 0.597 1.483 0.895 2.265 0.895 0.782 0 1.616-0.298 2.212-0.895L67.9 32.006C69.093 30.814 69.119 28.879 67.926 27.687zM17.074 41.981L22 35.435v13.176L17.074 41.981z" fill="#8abe53" data-fill-palette-color="accent"></path></svg></g></svg></g></svg></g></svg></g></svg></g></svg></g><defs></defs></svg><rect width="83.3196853926791" height="95.48100000000001" fill="none" stroke="none" visibility="hidden"></rect></g></svg></g></svg>