<?xml version="1.0" standalone="no"?>
<!DOCTYPE svg PUBLIC "-//W3C//DTD SVG 20010904//EN"
 "http://www.w3.org/TR/2001/REC-SVG-20010904/DTD/svg10.dtd">
<svg version="1.0" xmlns="http://www.w3.org/2000/svg"
 width="500.000000pt" height="194.000000pt" viewBox="0 0 500.000000 194.000000"
 preserveAspectRatio="xMidYMid meet">

<g transform="translate(0.000000,194.000000) scale(0.100000,-0.100000)"
fill="#000000" stroke="none">
<path d="M2001 1385 c-82 -23 -147 -63 -204 -125 -91 -100 -129 -224 -109
-359 32 -219 201 -361 431 -361 122 0 256 45 324 108 l27 26 0 152 c0 203 6
198 -210 192 -145 -3 -160 -10 -160 -69 0 -46 31 -59 138 -59 l93 0 -3 -82 -3
-83 -60 -24 c-87 -35 -200 -34 -271 2 -166 84 -206 323 -79 465 67 75 116 95
219 91 73 -4 92 -9 159 -43 l77 -40 27 20 c37 28 47 47 39 77 -22 88 -282 155
-435 112z"/>
<path d="M2692 1383 c-7 -3 -20 -19 -28 -36 -14 -27 -16 -62 -10 -281 8 -282
16 -324 75 -402 26 -35 56 -59 105 -84 66 -33 74 -35 175 -35 142 0 197 19
272 94 89 89 92 106 97 433 3 269 3 277 -17 297 -26 26 -71 27 -100 3 -21 -17
-22 -26 -29 -287 l-7 -270 -27 -47 c-36 -61 -91 -88 -178 -88 -87 0 -142 27
-178 88 l-27 47 -6 269 c-6 264 -6 270 -29 288 -21 17 -60 22 -88 11z"/>
<path d="M3549 1369 c-16 -16 -20 -29 -16 -55 6 -35 223 -550 285 -674 44 -89
71 -109 129 -95 34 9 41 17 72 80 40 83 202 457 261 603 39 98 41 105 26 128
-19 28 -59 40 -94 28 -28 -10 -36 -27 -192 -407 -87 -213 -95 -227 -106 -204
-7 13 -45 102 -85 198 -142 347 -161 389 -182 404 -30 21 -73 19 -98 -6z"/>
<path d="M4504 1365 l-25 -25 3 -374 c3 -351 4 -375 22 -395 25 -27 79 -28
106 -1 19 19 20 33 20 400 0 367 -1 381 -20 400 -28 28 -75 26 -106 -5z"/>
</g>
</svg>
