<svg xmlns="http://www.w3.org/2000/svg" version="1.1" xmlns:xlink="http://www.w3.org/1999/xlink" xmlns:svgjs="http://svgjs.dev/svgjs" width="1000" height="320" viewBox="0 0 1000 320"><g transform="matrix(1,0,0,1,-0.6060605454388792,0.061692870552803925)"><svg viewBox="0 0 396 127" data-background-color="#ffffff" preserveAspectRatio="xMidYMid meet" height="320" width="1000" xmlns="http://www.w3.org/2000/svg" xmlns:xlink="http://www.w3.org/1999/xlink"><g id="tight-bounds" transform="matrix(1,0,0,1,0.24000002400623544,-0.024484358000648854)"><svg viewBox="0 0 395.52 127.04896871600128" height="127.04896871600128" width="395.52"><g><svg viewBox="0 0 594.9262120768449 191.10224946015424" height="127.04896871600128" width="395.52"><g transform="matrix(1,0,0,1,0,26.411381799485866)"><svg viewBox="0 0 395.52 138.2794858611825" height="138.2794858611825" width="395.52"><g id="textblocktransform"><svg viewBox="0 0 395.52 138.2794858611825" height="138.2794858611825" width="395.52" id="textblock"><g><svg viewBox="0 0 395.52 138.2794858611825" height="138.2794858611825" width="395.52"><g transform="matrix(1,0,0,1,0,0)"><svg width="395.52" viewBox="2.9800000190734863 -36.040000915527344 104.45999908447266 36.53000259399414" height="138.2794858611825" data-palette-color="#4a4d4b"><path d="M30.37-17.7L30.37-4.66Q28.56-2.08 25.33-0.79 22.09 0.49 17.8 0.49L17.8 0.49Q13.45 0.49 10.08-1.55 6.71-3.59 4.87-7.35 3.03-11.11 2.98-16.06L2.98-16.06 2.98-19.17Q2.98-27.2 6.73-31.62 10.47-36.04 17.26-36.04L17.26-36.04Q22.83-36.04 26.22-33.19 29.61-30.35 30.37-25.12L30.37-25.12 25.68-25.12Q24.37-32.18 17.29-32.18L17.29-32.18Q12.57-32.18 10.14-28.87 7.71-25.56 7.69-19.29L7.69-19.29 7.69-16.38Q7.69-10.4 10.42-6.87 13.16-3.34 17.82-3.34L17.82-3.34Q20.46-3.34 22.44-3.93 24.41-4.52 25.71-5.91L25.71-5.91 25.71-13.89 17.48-13.89 17.48-17.7 30.37-17.7ZM58.49-35.55L63.21-35.55 63.21-11.38Q63.18-6.35 60.04-3.15 56.91 0.05 51.54 0.44L51.54 0.44 50.29 0.49Q44.46 0.49 40.99-2.66 37.52-5.81 37.47-11.33L37.47-11.33 37.47-35.55 42.11-35.55 42.11-11.47Q42.11-7.62 44.24-5.48 46.36-3.34 50.29-3.34L50.29-3.34Q54.27-3.34 56.38-5.47 58.49-7.59 58.49-11.45L58.49-11.45 58.49-35.55ZM72.26-35.55L82.37-6.23 92.52-35.55 97.65-35.55 84.47 0 80.32 0 67.16-35.55 72.26-35.55ZM107.44-35.55L107.44 0 102.75 0 102.75-35.55 107.44-35.55Z" opacity="1" transform="matrix(1,0,0,1,0,0)" fill="#4a4d4b" class="wordmark-text-0" data-fill-palette-color="primary" id="text-0"></path></svg></g></svg></g></svg></g></svg></g><g transform="matrix(1,0,0,1,428.1644679041645,0)"><svg viewBox="0 0 166.76174417268038 191.10224946015424" height="191.10224946015424" width="166.76174417268038"><g><svg xmlns="http://www.w3.org/2000/svg" xmlns:xlink="http://www.w3.org/1999/xlink" version="1.1" x="0" y="0" viewBox="10.636857986450195 5 78.36314392089844 89.80101013183594" enable-background="new 0 0 100 100" xml:space="preserve" height="191.10224946015424" width="166.76174417268038" class="icon-icon-0" data-fill-palette-color="accent" id="icon-0"><circle cx="34.131" cy="14.3" r="8.7" fill="#8abe53" data-fill-palette-color="accent"></circle><polygon points="52,5 52,28.47 54.331,31.346 56,29.29 56,10 85,10 85,48 52,48 52,52 89,52 89,5 " fill="#8abe53" data-fill-palette-color="accent"></polygon><path d="M67.926 27.687c-1.193-1.193-3.127-1.193-4.32 0l-9.078 9.145c0 0-9.7-10.831-12.187-10.831H25.383c0 0-3.374-0.127-4.423 1.267l-9.683 12.828c-0.849 1.129-0.854 2.661-0.012 3.795l8.848 12.386C20.672 57.027 21 57.451 22 57.535v33.284c0 2.199 1.801 3.982 4 3.982s4-1.783 4-3.982V62h7v28.819c0 2.199 1.801 3.982 4 3.982 2.199 0 4-1.783 4-3.982V36.294l7.159 6.95c0.597 0.597 1.483 0.895 2.265 0.895 0.782 0 1.616-0.298 2.212-0.895L67.9 32.006C69.093 30.814 69.119 28.879 67.926 27.687zM17.074 41.981L22 35.435v13.176L17.074 41.981z" fill="#8abe53" data-fill-palette-color="accent"></path></svg></g></svg></g></svg></g><defs></defs></svg><rect width="395.52" height="127.04896871600128" fill="none" stroke="none" visibility="hidden"></rect></g></svg></g></svg>